<svg width="128" height="77" viewBox="0 0 128 77" fill="none" xmlns="http://www.w3.org/2000/svg">
<path fill-rule="evenodd" clip-rule="evenodd" d="M63.9821 66.7047C71.7201 59.719 76.5922 49.5807 76.5922 38.3319C76.5922 27.0831 71.7201 16.9449 63.9821 9.88749C57.2113 3.72572 48.2194 0 38.3319 0C17.1956 0 0 17.1956 0 38.3319C0 59.5041 17.1956 76.5922 38.3319 76.5922C48.2552 76.5922 57.2471 72.8307 63.9821 66.7047Z" fill="#009DDD"/>
<path fill-rule="evenodd" clip-rule="evenodd" d="M63.9824 66.7047C71.7205 59.719 76.5926 49.5807 76.5926 38.3319C76.5926 27.0831 71.7205 16.9448 63.9824 9.88745V66.7047Z" fill="#009DDD"/>
<path fill-rule="evenodd" clip-rule="evenodd" d="M89.74 0C79.8525 0 70.8248 3.76155 64.0182 9.88749C62.6569 11.1772 61.4031 12.5027 60.185 13.9356H67.9231C68.962 15.1895 69.9651 16.6224 70.8607 17.9838H57.2833C56.4593 19.3451 55.707 20.6706 55.0264 22.0319H73.0459C73.655 23.3932 74.264 24.7187 74.6939 26.08H53.4143C52.9485 27.4414 52.5903 28.8027 52.3037 30.1998H75.7686C76.3059 32.7434 76.5925 35.5376 76.5925 38.2961C76.5925 42.4875 75.9119 46.6073 74.6222 50.4405H53.4143C53.8442 51.8018 54.3815 53.1273 54.9905 54.4887H73.0101C72.3295 55.85 71.6488 57.2471 70.8248 58.5368H57.2475C58.1431 59.9698 59.1103 61.2953 60.185 62.5849H67.9231C66.7409 64.0179 65.4512 65.3792 64.0182 66.6331C70.8607 72.7948 79.8525 76.5206 89.74 76.5206C110.912 76.5206 128 59.4324 128 38.2603C128 17.1956 110.876 0 89.74 0Z" fill="#ED1C2E"/>
<path fill-rule="evenodd" clip-rule="evenodd" d="M114.781 46.5715C114.781 45.8909 115.39 45.3535 116.071 45.3535C116.752 45.3535 117.289 45.8909 117.289 46.5715C117.289 47.2522 116.752 47.8612 116.071 47.8612C115.39 47.8612 114.781 47.2522 114.781 46.5715ZM116.071 47.5746C116.608 47.5746 116.967 47.1089 116.967 46.6074C116.967 46.1058 116.608 45.7118 116.071 45.7118C115.534 45.7118 115.104 46.07 115.104 46.6074C115.104 47.1447 115.534 47.5746 116.071 47.5746ZM115.892 47.1089H115.605V46.07H116.071C116.214 46.07 116.286 46.07 116.358 46.1416C116.429 46.2133 116.501 46.2849 116.501 46.3566C116.501 46.4999 116.429 46.6432 116.286 46.6432L116.501 47.1089H116.214L116.071 46.7507H115.928V47.1089H115.892ZM115.892 46.4999H116.035C116.035 46.4999 116.107 46.4999 116.178 46.4999C116.178 46.4999 116.178 46.4282 116.178 46.3566V46.2849C116.107 46.2849 116.035 46.2849 115.963 46.2849H115.892V46.4999V46.4999Z" fill="white"/>
<path fill-rule="evenodd" clip-rule="evenodd" d="M33.531 47.8611H28.7305L31.5965 32.9224L25.0406 47.8611H20.7059L19.9536 32.994L17.0877 47.8611H12.7529L16.4428 28.4443H23.9301L24.2883 40.4455L29.5545 28.4443H37.2925L33.531 47.8611Z" fill="white"/>
<path fill-rule="evenodd" clip-rule="evenodd" d="M86.8022 47.6461C85.4409 48.0044 84.4737 48.1835 83.3631 48.1835C80.9629 48.1835 79.6016 46.9655 79.6016 44.7444C79.6016 44.2786 79.6732 43.8488 79.7449 43.3114L80.0314 41.7351L80.2464 40.5171L82.4317 28.4443H87.1605L86.4798 32.0268H88.9517L88.271 35.86H85.7992L84.5811 42.4516C84.5095 42.7382 84.4378 42.989 84.4378 43.1323C84.4378 43.9562 84.9752 44.3503 86.0858 44.3503C86.6231 44.3503 87.053 44.2786 87.3754 44.207L86.8022 47.6461Z" fill="white"/>
<path fill-rule="evenodd" clip-rule="evenodd" d="M100.666 32.1701C100.308 32.0268 100.2 32.0268 100.129 32.0268C99.9137 31.9552 99.7704 31.9552 99.7704 31.8835C99.6271 31.8835 99.4838 31.8835 99.233 31.8835C97.6568 31.8835 96.5462 32.5642 95.1132 34.4271L95.579 32.0268H91.2442L88.3066 47.8612H93.1071C94.8266 38.1886 95.5073 36.469 97.8359 36.469C97.9792 36.469 98.23 36.5407 98.4449 36.5407L98.9823 36.684L100.666 32.1701Z" fill="white"/>
<path fill-rule="evenodd" clip-rule="evenodd" d="M67.8869 37.0422C67.8869 38.9767 68.9975 40.4096 71.5768 41.4127C73.5113 42.2367 73.8337 42.4516 73.8337 43.2039C73.8337 44.1712 72.9381 44.6369 71.0395 44.6369C69.6065 44.6369 68.2452 44.422 66.7047 43.9562L66.0957 47.6461H66.3107L67.1346 47.8611C67.4212 47.8611 67.8869 47.9327 68.4243 47.9327C69.5348 48.076 70.4663 48.076 71.1111 48.076C76.1265 48.076 78.5267 46.4281 78.5267 42.8099C78.5267 40.6246 77.5595 39.3707 75.0876 38.3677C73.0456 37.6153 72.8307 37.4004 72.8307 36.6481C72.8307 35.8241 73.6546 35.3584 75.2309 35.3584C76.1265 35.3584 77.4878 35.4301 78.67 35.5734L79.3507 31.9909C78.061 31.776 76.1981 31.7043 75.1592 31.7043C69.7856 31.7402 67.8869 34.1404 67.8869 37.0422Z" fill="white"/>
<path fill-rule="evenodd" clip-rule="evenodd" d="M48.9714 47.8611H45.0666L45.1382 46.2132C43.9202 47.5028 42.2723 48.076 40.1228 48.076C37.5793 48.076 35.7881 46.3565 35.7881 43.8129C35.7881 39.9797 38.869 37.7228 44.2068 37.7228C44.7441 37.7228 45.389 37.7228 46.1413 37.7945C46.2846 37.2571 46.2846 37.0422 46.2846 36.8272C46.2846 35.7883 45.4606 35.3942 43.2037 35.3942C41.8424 35.3942 40.3736 35.5375 39.2989 35.7525L38.6182 35.9674L38.1525 36.0391L38.8331 32.5283C41.2334 31.9193 42.738 31.7043 44.5292 31.7043C48.649 31.7043 50.7626 33.2806 50.7626 36.2898C50.7626 37.1138 50.691 37.7228 50.4044 39.4424L49.4371 45.0668L49.2938 46.034L49.1505 46.858L49.0789 47.3954L48.9714 47.8611ZM45.5323 40.8037C44.9949 40.7321 44.78 40.7321 44.4934 40.7321C41.8066 40.7321 40.4452 41.556 40.4452 43.1323C40.4452 44.0995 41.0542 44.7802 42.0931 44.7802C44.0277 44.7802 45.4606 43.1323 45.5323 40.8037Z" fill="white"/>
<path fill-rule="evenodd" clip-rule="evenodd" d="M64.6627 47.503C63.0148 47.9687 61.4385 48.1837 59.7906 48.1837C54.4886 48.1837 51.6943 45.7118 51.6943 41.0547C51.6943 35.6452 55.2051 31.6687 60.0056 31.6687C63.9104 31.6687 66.3823 33.9256 66.3823 37.3648C66.3823 38.547 66.239 39.6933 65.8449 41.2696H56.3157C56.3157 41.5562 56.3157 41.6278 56.3157 41.807C56.3157 43.5982 57.677 44.5654 60.4355 44.5654C62.155 44.5654 63.7313 44.2788 65.3792 43.5982L64.6627 47.503ZM62.1192 38.1171C62.1192 37.8305 62.1192 37.5081 62.1192 37.2931C62.1192 36.0034 61.2952 35.2511 59.8623 35.2511C58.3576 35.2511 57.3187 36.29 56.853 38.1171H62.1192Z" fill="white"/>
<path fill-rule="evenodd" clip-rule="evenodd" d="M115.533 40.6606C114.781 45.9268 111.091 48.2195 106.219 48.2195C100.881 48.2195 98.7314 44.9954 98.7314 40.9472C98.7314 35.3945 102.421 31.5613 108.117 31.5613C113.061 31.5613 115.712 34.7138 115.712 38.6903C115.676 39.6934 115.676 39.765 115.533 40.6606ZM110.589 38.6187C110.589 36.9707 109.909 35.4661 107.974 35.4661C105.574 35.4661 104.069 38.2962 104.069 40.8756C104.069 42.9892 105.108 44.3864 106.756 44.3864C107.795 44.3864 110.052 42.9534 110.446 40.5532C110.589 39.98 110.589 39.2993 110.589 38.6187Z" fill="white"/>
</svg>
