<svg width="128" height="69" viewBox="0 0 128 69" fill="none" xmlns="http://www.w3.org/2000/svg">
<path fill-rule="evenodd" clip-rule="evenodd" d="M63.9866 54.8899C69.6612 49.7671 73.234 42.3324 73.234 34.0832C73.234 25.8341 69.6612 18.3994 63.9866 13.224C59.0214 8.70534 52.4273 5.97314 45.1765 5.97314C29.6765 5.97314 17.0664 18.5833 17.0664 34.0832C17.0664 49.6094 29.6765 62.1408 45.1765 62.1408C52.4536 62.1408 59.0476 59.3823 63.9866 54.8899Z" fill="#009DDD"/>
<path fill-rule="evenodd" clip-rule="evenodd" d="M63.9863 54.8899C69.6609 49.767 73.2338 42.3323 73.2338 34.0831C73.2338 25.834 69.6609 18.3993 63.9863 13.2239V54.8899Z" fill="#009DDD"/>
<path fill-rule="evenodd" clip-rule="evenodd" d="M82.8762 5.97314C75.6253 5.97314 69.005 8.73161 64.0135 13.224C63.0152 14.1697 62.0957 15.1418 61.2025 16.1926H66.8771C67.6389 17.1121 68.3745 18.1629 69.0313 19.1612H59.0745C58.4703 20.1595 57.9186 21.1316 57.4195 22.1299H70.6338C71.0804 23.1282 71.527 24.1002 71.8423 25.0985H56.2373C55.8957 26.0968 55.633 27.0951 55.4229 28.1197H72.6304C73.0245 29.9849 73.2347 32.0341 73.2347 34.057C73.2347 37.1307 72.7355 40.1519 71.7898 42.9629H56.2373C56.5525 43.9612 56.9466 44.9332 57.3932 45.9315H70.6076C70.1084 46.9298 69.6093 47.9544 69.005 48.9001H59.0483C59.705 49.951 60.4144 50.923 61.2025 51.8688H66.8771C66.0101 52.9196 65.0644 53.9179 64.0135 54.8374C69.0313 59.356 75.6253 62.0882 82.8762 62.0882C98.4024 62.0882 110.934 49.5569 110.934 34.0307C110.934 18.5833 98.3761 5.97314 82.8762 5.97314Z" fill="#ED1C2E"/>
<path fill-rule="evenodd" clip-rule="evenodd" d="M101.239 40.1256C101.239 39.6265 101.686 39.2324 102.185 39.2324C102.684 39.2324 103.078 39.6265 103.078 40.1256C103.078 40.6248 102.684 41.0714 102.185 41.0714C101.686 41.0714 101.239 40.6248 101.239 40.1256ZM102.185 40.8612C102.579 40.8612 102.842 40.5197 102.842 40.1519C102.842 39.7841 102.579 39.4951 102.185 39.4951C101.791 39.4951 101.476 39.7578 101.476 40.1519C101.476 40.546 101.791 40.8612 102.185 40.8612ZM102.054 40.5197H101.843V39.7578H102.185C102.29 39.7578 102.343 39.7578 102.395 39.8104C102.448 39.8629 102.5 39.9155 102.5 39.968C102.5 40.0731 102.448 40.1782 102.343 40.1782L102.5 40.5197H102.29L102.185 40.257H102.08V40.5197H102.054ZM102.054 40.0731H102.159C102.159 40.0731 102.211 40.0731 102.264 40.0731C102.264 40.0731 102.264 40.0206 102.264 39.968V39.9155C102.211 39.9155 102.159 39.9155 102.106 39.9155H102.054V40.0731V40.0731Z" fill="white"/>
<path fill-rule="evenodd" clip-rule="evenodd" d="M41.6562 41.0712H38.1359L40.2375 30.1162L35.4299 41.0712H32.2511L31.6994 30.1687L29.5977 41.0712H26.4189L29.1249 26.8323H34.6155L34.8782 35.6331L38.7401 26.8323H44.4147L41.6562 41.0712Z" fill="white"/>
<path fill-rule="evenodd" clip-rule="evenodd" d="M80.7219 40.9136C79.7236 41.1763 79.0143 41.3077 78.1999 41.3077C76.4397 41.3077 75.4414 40.4144 75.4414 38.7856C75.4414 38.4441 75.4939 38.1289 75.5465 37.7348L75.7567 36.5789L75.9143 35.6856L77.5168 26.8323H80.9846L80.4855 29.4594H82.2982L81.799 32.2704H79.9863L79.0931 37.1043C79.0405 37.3145 78.988 37.4983 78.988 37.6034C78.988 38.2077 79.3821 38.4966 80.1965 38.4966C80.5905 38.4966 80.9058 38.4441 81.1422 38.3916L80.7219 40.9136Z" fill="white"/>
<path fill-rule="evenodd" clip-rule="evenodd" d="M90.8878 29.5647C90.625 29.4596 90.5462 29.4596 90.4937 29.4596C90.3361 29.407 90.231 29.407 90.231 29.3545C90.1259 29.3545 90.0208 29.3545 89.8369 29.3545C88.681 29.3545 87.8666 29.8536 86.8157 31.2197L87.1573 29.4596H83.9785L81.8242 41.0714H85.3445C86.6056 33.9782 87.1047 32.7172 88.8123 32.7172C88.9174 32.7172 89.1013 32.7697 89.259 32.7697L89.653 32.8748L90.8878 29.5647Z" fill="white"/>
<path fill-rule="evenodd" clip-rule="evenodd" d="M66.8507 33.1373C66.8507 34.5559 67.6651 35.6068 69.5566 36.3424C70.9752 36.9466 71.2117 37.1042 71.2117 37.6559C71.2117 38.3653 70.5549 38.7068 69.1625 38.7068C68.1117 38.7068 67.1134 38.5492 65.9837 38.2076L65.5371 40.9135H65.6947L66.299 41.0712C66.5091 41.0712 66.8507 41.1237 67.2447 41.1237C68.0591 41.2288 68.7422 41.2288 69.2151 41.2288C72.893 41.2288 74.6532 40.0203 74.6532 37.3669C74.6532 35.7644 73.9439 34.8449 72.1312 34.1093C70.6337 33.5576 70.4761 33.4 70.4761 32.8483C70.4761 32.2441 71.0803 31.9026 72.2362 31.9026C72.893 31.9026 73.8913 31.9551 74.7583 32.0602L75.2574 29.4331C74.3117 29.2754 72.9456 29.2229 72.1837 29.2229C68.243 29.2492 66.8507 31.0093 66.8507 33.1373Z" fill="white"/>
<path fill-rule="evenodd" clip-rule="evenodd" d="M52.9783 41.0712H50.1148L50.1673 39.8627C49.2741 40.8085 48.0656 41.2288 46.4893 41.2288C44.6241 41.2288 43.3105 39.9678 43.3105 38.1025C43.3105 35.2915 45.5699 33.6364 49.4843 33.6364C49.8783 33.6364 50.3512 33.6364 50.9029 33.689C51.008 33.2949 51.008 33.1373 51.008 32.9797C51.008 32.2178 50.4037 31.9288 48.7487 31.9288C47.7504 31.9288 46.6733 32.0339 45.8851 32.1915L45.386 32.3492L45.0444 32.4017L45.5436 29.8271C47.3038 29.3805 48.4071 29.2229 49.7207 29.2229C52.7419 29.2229 54.2919 30.3788 54.2919 32.5856C54.2919 33.1898 54.2393 33.6364 54.0292 34.8975L53.3198 39.022L53.2148 39.7313L53.1097 40.3356L53.0571 40.7296L52.9783 41.0712ZM50.4563 35.8958C50.0622 35.8432 49.9046 35.8432 49.6944 35.8432C47.7241 35.8432 46.7258 36.4475 46.7258 37.6034C46.7258 38.3127 47.1724 38.8119 47.9343 38.8119C49.3529 38.8119 50.4037 37.6034 50.4563 35.8958Z" fill="white"/>
<path fill-rule="evenodd" clip-rule="evenodd" d="M64.4857 40.8086C63.2773 41.1501 62.1213 41.3078 60.9129 41.3078C57.0247 41.3078 54.9756 39.4951 54.9756 36.0798C54.9756 32.1129 57.5502 29.1968 61.0705 29.1968C63.934 29.1968 65.7467 30.8519 65.7467 33.3739C65.7467 34.2408 65.6417 35.0815 65.3527 36.2374H58.3646C58.3646 36.4476 58.3646 36.5001 58.3646 36.6315C58.3646 37.9451 59.3629 38.6544 61.3857 38.6544C62.6468 38.6544 63.8027 38.4442 65.0112 37.9451L64.4857 40.8086ZM62.6205 33.9256C62.6205 33.7154 62.6205 33.479 62.6205 33.3213C62.6205 32.3756 62.0162 31.8239 60.9654 31.8239C59.862 31.8239 59.1002 32.5857 58.7586 33.9256H62.6205Z" fill="white"/>
<path fill-rule="evenodd" clip-rule="evenodd" d="M101.791 35.791C101.239 39.6529 98.5333 41.3342 94.9604 41.3342C91.046 41.3342 89.4697 38.9698 89.4697 36.0012C89.4697 31.9292 92.1757 29.1182 96.3528 29.1182C99.9782 29.1182 101.922 31.43 101.922 34.3461C101.896 35.0817 101.896 35.1342 101.791 35.791ZM98.1655 34.2936C98.1655 33.0851 97.6663 31.9817 96.2477 31.9817C94.4875 31.9817 93.3841 34.0571 93.3841 35.9487C93.3841 37.4986 94.146 38.5232 95.3545 38.5232C96.1163 38.5232 97.7714 37.4724 98.0604 35.7122C98.1655 35.2919 98.1655 34.7927 98.1655 34.2936Z" fill="white"/>
</svg>
