<svg width="128" height="77" viewBox="0 0 128 77" fill="none" xmlns="http://www.w3.org/2000/svg">
<path d="M89.7288 76.5436C110.866 76.5436 128.001 59.4087 128.001 38.2718C128.001 17.1349 110.866 0 89.7288 0C68.5919 0 51.457 17.1349 51.457 38.2718C51.457 59.4087 68.5919 76.5436 89.7288 76.5436Z" fill="#FED049"/>
<path fill-rule="evenodd" clip-rule="evenodd" d="M64.0207 9.93262C64.7295 10.5765 65.4138 11.2467 66.0728 11.9413H61.9658C62.6247 11.2467 63.3091 10.5765 64.0179 9.93262H64.0207H64.0207Z" fill="#FAC23C"/>
<path d="M38.2718 76.5436C59.4087 76.5436 76.5436 59.4087 76.5436 38.2718C76.5436 17.1349 59.4087 0 38.2718 0C17.1349 0 0 17.1349 0 38.2718C0 59.4087 17.1349 76.5436 38.2718 76.5436Z" fill="#F93232"/>
<path fill-rule="evenodd" clip-rule="evenodd" d="M67.9971 14.1428C68.5277 14.795 69.0374 15.4648 69.5248 16.1515H58.5039C58.9913 15.4648 59.501 14.795 60.0316 14.1428H67.9971H67.9971Z" fill="#FAC23C"/>
<path fill-rule="evenodd" clip-rule="evenodd" d="M70.9764 18.345C71.378 19.0019 71.7604 19.6715 72.1227 20.3537H55.915C56.2773 19.6715 56.6597 19.0019 57.0613 18.345H70.9764H70.9764Z" fill="#FAC23C"/>
<path fill-rule="evenodd" clip-rule="evenodd" d="M73.1819 22.5474C73.4796 23.2072 73.7589 23.877 74.0196 24.5561H53.9824C54.2432 23.877 54.5224 23.2072 54.8201 22.5474H73.1819H73.1819Z" fill="#FAC23C"/>
<path fill-rule="evenodd" clip-rule="evenodd" d="M74.7865 26.7498C74.9952 27.4117 75.1862 28.0816 75.3593 28.7585H52.6416C52.8147 28.0816 53.0057 27.4117 53.2144 26.7498H74.7865V26.7498Z" fill="#FAC23C"/>
<path fill-rule="evenodd" clip-rule="evenodd" d="M75.8672 30.9597C75.9956 31.6234 76.107 32.293 76.2008 32.9684H51.8301C51.9239 32.293 52.0353 31.6234 52.1638 30.9597H75.8671H75.8672Z" fill="#FAC23C"/>
<path fill-rule="evenodd" clip-rule="evenodd" d="M76.4189 35.1621C76.4725 35.8271 76.5087 36.4968 76.5278 37.1708H51.457C51.4761 36.4968 51.5123 35.8271 51.5659 35.1621H76.4189V35.1621Z" fill="#FAC23C"/>
<path fill-rule="evenodd" clip-rule="evenodd" d="M76.5288 39.3643C76.5098 40.0383 76.4737 40.7082 76.4204 41.373H51.5654C51.5121 40.7082 51.476 40.0383 51.457 39.3643H76.5288H76.5288Z" fill="#FAC23C"/>
<path fill-rule="evenodd" clip-rule="evenodd" d="M76.2051 43.5667C76.1115 44.2419 76.0004 44.9117 75.8722 45.5754H52.163C52.0348 44.9117 51.9236 44.2419 51.8301 43.5667H76.2051H76.2051Z" fill="#FAC23C"/>
<path fill-rule="evenodd" clip-rule="evenodd" d="M75.3656 47.7769C75.1927 48.4538 75.0021 49.1236 74.7937 49.7856H53.2126C53.0041 49.1236 52.8135 48.4538 52.6406 47.7769H75.3656H75.3656Z" fill="#FAC23C"/>
<path fill-rule="evenodd" clip-rule="evenodd" d="M74.0307 51.9792C73.7702 52.6583 73.4915 53.3282 73.194 53.988H54.8191C54.5217 53.3282 54.2429 52.6583 53.9824 51.9792H74.0307H74.0307Z" fill="#FAC23C"/>
<path fill-rule="evenodd" clip-rule="evenodd" d="M72.1079 56.1814C71.7461 56.8635 71.3639 57.5332 70.9628 58.1901H57.0299C56.6288 57.5332 56.2466 56.8635 55.8848 56.1814H72.108H72.1079Z" fill="#FAC23C"/>
<path fill-rule="evenodd" clip-rule="evenodd" d="M69.5151 60.3838C69.0282 61.0704 68.5193 61.7404 67.9892 62.3925H59.9996C59.4695 61.7404 58.9606 61.0704 58.4736 60.3838H69.5151V60.3838Z" fill="#FAC23C"/>
<path fill-rule="evenodd" clip-rule="evenodd" d="M120.513 44.7743V31.7783H116.864V36.2678C116.51 35.8894 116.105 35.6082 115.645 35.4175C115.188 35.23 114.68 35.1363 114.118 35.1363C112.965 35.1363 112.018 35.5507 111.271 36.3797C110.523 37.2086 110.148 38.4033 110.148 39.9673C110.148 41.3619 110.487 42.5507 111.162 43.5279C111.84 44.5051 112.82 44.9922 114.099 44.9922C114.738 44.9922 115.318 44.8559 115.836 44.5837C116.226 44.375 116.659 43.9726 117.131 43.3796V44.7743H120.513L120.513 44.7743ZM116.423 38.37C116.734 38.7331 116.891 39.2867 116.891 40.0279C116.891 40.8477 116.737 41.4376 116.432 41.8006C116.123 42.1605 115.742 42.3421 115.282 42.3421C114.853 42.3421 114.489 42.1636 114.199 41.8036C113.906 41.4435 113.761 40.8809 113.761 40.1096C113.761 39.2837 113.903 38.6967 114.184 38.3489C114.468 37.998 114.819 37.8225 115.237 37.8225C115.715 37.8225 116.111 38.0039 116.423 38.37V38.37Z" fill="#FFFFFE"/>
<path fill-rule="evenodd" clip-rule="evenodd" d="M105.485 36.8856V35.3489H102.103V44.769H105.733V41.6047C105.733 40.0951 105.92 39.0636 106.292 38.5131C106.552 38.1228 106.921 37.9261 107.393 37.9261C107.641 37.9261 107.98 38.0139 108.407 38.1923L109.526 35.6302C108.894 35.2974 108.31 35.1311 107.774 35.1311C107.266 35.1311 106.84 35.2549 106.492 35.5061C106.147 35.7571 105.811 36.2169 105.485 36.8856H105.485Z" fill="#FFFFFE"/>
<path fill-rule="evenodd" clip-rule="evenodd" d="M99.9164 38.6008C99.9164 38.1561 99.8288 37.6903 99.6502 37.2033C99.4747 36.716 99.2328 36.3381 98.924 36.0718C98.4885 35.6876 97.941 35.4336 97.2874 35.3125C96.631 35.1915 95.7659 35.1311 94.6861 35.1311C94.0113 35.1311 93.385 35.1824 92.8073 35.2822C92.2295 35.3821 91.7758 35.5241 91.446 35.7088C90.9832 35.9629 90.6321 36.2625 90.3871 36.6103C90.1422 36.9551 89.9546 37.43 89.8245 38.0351L93.2731 38.3981C93.4155 37.9866 93.5999 37.7084 93.8299 37.5571C94.1263 37.3666 94.5679 37.2728 95.1579 37.2728C95.6177 37.2728 95.9383 37.3605 96.1198 37.539C96.3044 37.7174 96.3952 38.0259 96.3952 38.4708C95.9473 38.6492 95.5209 38.7914 95.1185 38.9002C94.7162 39.0123 93.8388 39.2027 92.4866 39.4751C91.3583 39.6989 90.5839 40.0438 90.1633 40.5066C89.7429 40.9694 89.5342 41.5593 89.5342 42.2764C89.5342 43.0386 89.8245 43.6831 90.4083 44.2032C90.9892 44.7268 91.8424 44.9869 92.9646 44.9869C93.8086 44.9869 94.5499 44.8569 95.1882 44.5966C95.657 44.403 96.126 44.0793 96.5978 43.6255C96.6401 43.8948 96.6824 44.0915 96.7219 44.2185C96.7642 44.3456 96.8518 44.5271 96.9881 44.769H100.367C100.18 44.3788 100.055 44.0582 100.001 43.8071C99.9437 43.556 99.9164 43.208 99.9164 42.7634V38.6008L99.9164 38.6008ZM94.8402 40.7607C95.3817 40.6216 95.8989 40.4643 96.3952 40.2859V40.8666C96.3952 41.3205 96.3225 41.6895 96.1772 41.9737C96.0321 42.2583 95.787 42.4971 95.4422 42.6938C95.0943 42.8904 94.7192 42.9904 94.3169 42.9904C93.9326 42.9904 93.6422 42.8995 93.4426 42.718C93.246 42.5365 93.1462 42.3006 93.1462 42.0132C93.1462 41.7621 93.246 41.5381 93.4487 41.3415C93.6421 41.151 94.1081 40.9574 94.8402 40.7607V40.7607Z" fill="#FFFFFE"/>
<path fill-rule="evenodd" clip-rule="evenodd" d="M88.149 35.6047C87.6953 34.2312 86.9964 33.2147 86.0617 32.5522C85.124 31.8898 83.8351 31.5601 82.1986 31.5601C80.1052 31.5601 78.4868 32.1378 77.3403 33.2903C76.1968 34.446 75.625 36.0976 75.625 38.2455C75.625 39.8548 75.9516 41.1798 76.602 42.2114C77.2524 43.243 78.0238 43.9661 78.9193 44.3776C79.8178 44.7858 80.9702 44.9916 82.3862 44.9916C83.5509 44.9916 84.5097 44.8221 85.263 44.4863C86.0193 44.1505 86.6485 43.6514 87.1568 42.9889C87.668 42.3295 88.0401 41.5036 88.276 40.5174L84.7548 39.4555C84.5763 40.2754 84.292 40.9016 83.8986 41.3311C83.5054 41.7637 82.9246 41.9785 82.1562 41.9785C81.3636 41.9785 80.7495 41.7123 80.3109 41.1798C79.8723 40.6444 79.6544 39.6612 79.6544 38.2213C79.6544 37.0626 79.8389 36.2095 80.2051 35.6681C80.689 34.9392 81.3878 34.5731 82.3014 34.5731C82.7037 34.5731 83.0667 34.6547 83.3936 34.821C83.7172 34.9844 83.9924 35.2204 84.2194 35.5258C84.3555 35.7075 84.4856 35.9948 84.6096 36.3881L88.1491 35.6047L88.149 35.6047Z" fill="#FFFFFE"/>
<path fill-rule="evenodd" clip-rule="evenodd" d="M74.1334 38.1923L75.2527 35.6302C74.6206 35.2974 74.0366 35.1311 73.5012 35.1311C72.9929 35.1311 72.5663 35.2549 72.2186 35.5061C71.8737 35.7571 71.538 36.2169 71.2113 36.8856V35.3489H67.8291V44.769H71.4592V41.6047C71.4592 40.0951 71.6468 39.0636 72.0188 38.5131C72.279 38.1228 72.6482 37.9261 73.12 37.9261C73.3681 37.9261 73.7069 38.0139 74.1334 38.1923H74.1334Z" fill="#FFFFFE"/>
<path fill-rule="evenodd" clip-rule="evenodd" d="M66.139 40.549C66.139 39.3057 65.9363 38.2952 65.5279 37.5209C65.1196 36.7433 64.5236 36.1535 63.7432 35.745C62.9626 35.3368 61.9009 35.1311 60.5517 35.1311C58.8909 35.1311 57.5871 35.5877 56.6461 36.4984C55.7023 37.409 55.2305 38.6039 55.2305 40.0772C55.2305 41.1118 55.4665 42.0132 55.9353 42.7815C56.4071 43.5468 57.0002 44.1064 57.7139 44.4576C58.431 44.8114 59.4111 44.9869 60.6606 44.9869C62.0975 44.9869 63.2015 44.7811 63.9699 44.3697C64.7384 43.9614 65.3948 43.2807 65.9394 42.3368L62.3818 42.0101C62.158 42.2915 61.9462 42.4881 61.7495 42.6C61.4319 42.7755 61.0931 42.8631 60.7361 42.8631C60.1735 42.8631 59.7166 42.6606 59.3689 42.2522C59.1177 41.9678 58.9635 41.5351 58.8969 40.9574H66.139V40.549L66.139 40.549ZM61.9069 37.7266C62.2124 38.0291 62.4031 38.5312 62.4726 39.233H58.906C58.9665 38.6673 59.1056 38.2438 59.3233 37.9594C59.6683 37.5027 60.1281 37.2728 60.7029 37.2728C61.2021 37.2728 61.6015 37.424 61.9069 37.7266V37.7266Z" fill="#FFFFFE"/>
<path fill-rule="evenodd" clip-rule="evenodd" d="M53.9751 38.0039V35.3541H51.9967V31.7783L48.3846 33.6268V35.3541H47.0596V38.0039H48.3846V41.3167C48.3846 42.3663 48.4876 43.1286 48.6901 43.5976C48.8958 44.0664 49.2106 44.4172 49.6341 44.6471C50.0606 44.8772 50.7231 44.9921 51.6217 44.9921C52.396 44.9921 53.2279 44.8953 54.1202 44.6987L53.8541 42.2029C53.373 42.3572 53.001 42.4329 52.7348 42.4329C52.4384 42.4329 52.2297 42.333 52.1116 42.1334C52.0361 42.0032 51.9967 41.737 51.9967 41.3378V38.0039H53.9751H53.9751Z" fill="#FFFFFE"/>
<path fill-rule="evenodd" clip-rule="evenodd" d="M22.1269 44.7744V31.7783H16.8539L14.8302 39.6859L12.8126 31.7783H7.51562V44.7744H10.8007V34.867L13.3296 44.7744H16.3065L18.8415 34.867V44.7744H22.1269Z" fill="#FFFFFE"/>
<path fill-rule="evenodd" clip-rule="evenodd" d="M24.303 38.0351L27.7518 38.3981C27.894 37.9866 28.0786 37.7083 28.3084 37.5571C28.605 37.3666 29.0465 37.2728 29.6364 37.2728C30.0963 37.2728 30.4169 37.3605 30.5985 37.539C30.7829 37.7174 30.8738 38.0259 30.8738 38.4708C30.426 38.6492 29.9995 38.7914 29.5972 38.9002C29.1947 39.0123 28.3174 39.2027 26.9652 39.4751C25.8369 39.6988 25.0624 40.0438 24.642 40.5066C24.2215 40.9694 24.0127 41.5593 24.0127 42.2764C24.0127 43.0386 24.303 43.6831 24.887 44.2032C25.4679 44.7268 26.3209 44.9869 27.4433 44.9869C28.2873 44.9869 29.0284 44.8569 29.6668 44.5966C30.1357 44.403 30.6045 44.0793 31.0765 43.6255C31.1187 43.8948 31.1611 44.0915 31.2006 44.2184C31.2428 44.3456 31.3305 44.5271 31.4667 44.769H34.8458C34.6582 44.3788 34.5341 44.0582 34.4798 43.8071C34.4223 43.556 34.395 43.208 34.395 42.7634V38.6008C34.395 38.1561 34.3073 37.6903 34.1289 37.2033C33.9534 36.716 33.7113 36.3381 33.4027 36.0718C32.967 35.6876 32.4196 35.4336 31.7661 35.3125C31.1097 35.1915 30.2444 35.1311 29.1646 35.1311C28.4898 35.1311 27.8637 35.1824 27.2858 35.2822C26.708 35.3821 26.2544 35.5241 25.9246 35.7088C25.4617 35.9629 25.1108 36.2625 24.8657 36.6103C24.6207 36.9551 24.4333 37.43 24.303 38.0351V38.0351ZM29.3187 40.7607C29.8603 40.6215 30.3776 40.4643 30.8738 40.2859V40.8666C30.8738 41.3205 30.8012 41.6895 30.6558 41.9737C30.5107 42.2583 30.2657 42.4971 29.9208 42.6938C29.5729 42.8904 29.1979 42.9904 28.7956 42.9904C28.4112 42.9904 28.1208 42.8994 27.9211 42.718C27.7246 42.5365 27.6248 42.3006 27.6248 42.0132C27.6248 41.7621 27.7246 41.5381 27.9273 41.3415C28.1208 41.151 28.5866 40.9574 29.3187 40.7607H29.3187Z" fill="#FFFFFE"/>
<path fill-rule="evenodd" clip-rule="evenodd" d="M36.8636 36.4712C36.5035 36.9188 36.3251 37.4543 36.3251 38.0745C36.3251 38.6431 36.4913 39.1483 36.8241 39.5931C37.1598 40.0347 37.5684 40.3524 38.0553 40.5368C38.5456 40.7245 39.4138 40.9271 40.666 41.145C41.504 41.2932 42.0214 41.4173 42.215 41.5171C42.4873 41.6592 42.6234 41.862 42.6234 42.1221C42.6234 42.3519 42.5205 42.5454 42.3118 42.6968C42.0456 42.9055 41.6705 43.0083 41.1864 43.0083C40.7419 43.0083 40.3878 42.9177 40.1217 42.7361C39.8552 42.5547 39.6497 42.2522 39.5014 41.8285L35.9258 42.1553C36.1315 43.0599 36.6003 43.7587 37.3295 44.2488C38.0583 44.7417 39.2835 44.9869 41.0017 44.9869C42.218 44.9869 43.18 44.8356 43.8849 44.5301C44.5897 44.2246 45.107 43.816 45.4337 43.3018C45.7635 42.7877 45.9269 42.2583 45.9269 41.7137C45.9269 41.1751 45.7725 40.682 45.461 40.2313C45.1524 39.7806 44.7046 39.4356 44.1208 39.1937C43.534 38.9517 42.6446 38.7611 41.4435 38.625C40.654 38.5312 40.1397 38.4253 39.9068 38.3043C39.6738 38.1864 39.5559 38.0139 39.5559 37.781C39.5559 37.5753 39.6497 37.3998 39.8342 37.2545C40.0187 37.1094 40.3153 37.0369 40.7205 37.0369C41.1228 37.0369 41.4646 37.1304 41.746 37.3181C41.9518 37.4602 42.0999 37.6811 42.1877 37.9807L45.6 37.6539C45.3641 37.0369 45.0677 36.5497 44.7106 36.1867C44.3538 35.8266 43.909 35.5606 43.3735 35.388C42.8412 35.2157 42.0124 35.1311 40.893 35.1311C39.8311 35.1311 38.984 35.2429 38.3519 35.4638C37.7196 35.6846 37.2234 36.0204 36.8636 36.4712L36.8636 36.4712Z" fill="#FFFFFE"/>
</svg>
