<svg width="128" height="69" viewBox="0 0 128 69" fill="none" xmlns="http://www.w3.org/2000/svg">
<path d="M82.8677 62.1052C98.3681 62.1052 110.934 49.5397 110.934 34.0393C110.934 18.5389 98.3681 5.97339 82.8677 5.97339C67.3673 5.97339 54.8018 18.5389 54.8018 34.0393C54.8018 49.5397 67.3673 62.1052 82.8677 62.1052Z" fill="#FED049"/>
<path fill-rule="evenodd" clip-rule="evenodd" d="M64.0147 13.2573C64.5345 13.7295 65.0364 14.221 65.5196 14.7304H62.5078C62.991 14.221 63.4929 13.7295 64.0127 13.2573H64.0147H64.0147Z" fill="#FAC23C"/>
<path d="M45.1323 62.1052C60.6327 62.1052 73.1983 49.5397 73.1983 34.0393C73.1983 18.5389 60.6327 5.97339 45.1323 5.97339C29.6319 5.97339 17.0664 18.5389 17.0664 34.0393C17.0664 49.5397 29.6319 62.1052 45.1323 62.1052Z" fill="#F93232"/>
<path fill-rule="evenodd" clip-rule="evenodd" d="M66.9304 16.3447C67.3195 16.823 67.6933 17.3142 68.0507 17.8178H59.9688C60.3262 17.3142 60.7 16.823 61.0891 16.3447H66.9304H66.9304Z" fill="#FAC23C"/>
<path fill-rule="evenodd" clip-rule="evenodd" d="M69.1153 19.4263C69.4098 19.908 69.6902 20.3991 69.9559 20.8993H58.0703C58.3359 20.3991 58.6164 19.908 58.9109 19.4263H69.1153H69.1153Z" fill="#FAC23C"/>
<path fill-rule="evenodd" clip-rule="evenodd" d="M70.7329 22.5081C70.9512 22.9919 71.156 23.4831 71.3472 23.9811H56.6533C56.8445 23.4831 57.0493 22.9919 57.2676 22.5081H70.7329H70.7329Z" fill="#FAC23C"/>
<path fill-rule="evenodd" clip-rule="evenodd" d="M71.9095 25.5898C72.0625 26.0753 72.2026 26.5665 72.3295 27.0629H55.6699C55.7969 26.5665 55.9369 26.0753 56.09 25.5898H71.9095V25.5898Z" fill="#FAC23C"/>
<path fill-rule="evenodd" clip-rule="evenodd" d="M72.7023 28.6772C72.7966 29.164 72.8783 29.655 72.947 30.1503H55.0752C55.144 29.655 55.2257 29.164 55.3199 28.6772H72.7023H72.7023Z" fill="#FAC23C"/>
<path fill-rule="evenodd" clip-rule="evenodd" d="M73.1071 31.7588C73.1464 32.2464 73.1729 32.7376 73.187 33.2319H54.8018C54.8158 32.7376 54.8423 32.2464 54.8816 31.7588H73.1071V31.7588Z" fill="#FAC23C"/>
<path fill-rule="evenodd" clip-rule="evenodd" d="M73.1877 34.8403C73.1738 35.3346 73.1473 35.8259 73.1082 36.3134H54.8812C54.8421 35.8259 54.8157 35.3346 54.8018 34.8403H73.1877H73.1877Z" fill="#FAC23C"/>
<path fill-rule="evenodd" clip-rule="evenodd" d="M72.9502 37.9221C72.8816 38.4173 72.8001 38.9085 72.706 39.3952H55.3193C55.2253 38.9085 55.1438 38.4173 55.0752 37.9221H72.9501H72.9502Z" fill="#FAC23C"/>
<path fill-rule="evenodd" clip-rule="evenodd" d="M72.3339 41.0098C72.2071 41.5062 72.0674 41.9974 71.9145 42.4828H56.0884C55.9355 41.9974 55.7957 41.5062 55.6689 41.0098H72.3339H72.3339Z" fill="#FAC23C"/>
<path fill-rule="evenodd" clip-rule="evenodd" d="M71.3554 44.0913C71.1643 44.5893 70.9599 45.0805 70.7418 45.5644H57.2669C57.0488 45.0805 56.8444 44.5893 56.6533 44.0913H71.3553H71.3554Z" fill="#FAC23C"/>
<path fill-rule="evenodd" clip-rule="evenodd" d="M69.9458 47.1731C69.6805 47.6733 69.4002 48.1644 69.1061 48.6462H58.8886C58.5945 48.1644 58.3142 47.6733 58.0488 47.1731H69.9458H69.9458Z" fill="#FAC23C"/>
<path fill-rule="evenodd" clip-rule="evenodd" d="M68.0444 50.2546C67.6873 50.7581 67.314 51.2495 66.9253 51.7277H61.0663C60.6776 51.2495 60.3044 50.7581 59.9473 50.2546H68.0444V50.2546Z" fill="#FAC23C"/>
<path fill-rule="evenodd" clip-rule="evenodd" d="M105.442 38.8077V29.2773H102.767V32.5696C102.507 32.2922 102.21 32.0859 101.873 31.9461C101.538 31.8086 101.165 31.7399 100.753 31.7399C99.9071 31.7399 99.2129 32.0438 98.6649 32.6517C98.1168 33.2595 97.8418 34.1357 97.8418 35.2826C97.8418 36.3053 98.0903 37.1771 98.585 37.8937C99.082 38.6103 99.8007 38.9675 100.739 38.9675C101.207 38.9675 101.633 38.8675 102.013 38.6679C102.299 38.5149 102.616 38.2198 102.962 37.7849V38.8077H105.442L105.442 38.8077ZM102.443 34.1113C102.671 34.3775 102.787 34.7835 102.787 35.327C102.787 35.9282 102.674 36.3608 102.45 36.627C102.223 36.891 101.944 37.0241 101.607 37.0241C101.291 37.0241 101.025 36.8932 100.812 36.6292C100.597 36.3652 100.491 35.9526 100.491 35.3869C100.491 34.7813 100.595 34.3508 100.801 34.0958C101.01 33.8384 101.267 33.7097 101.573 33.7097C101.924 33.7097 102.214 33.8428 102.443 34.1113V34.1113Z" fill="#FFFFFE"/>
<path fill-rule="evenodd" clip-rule="evenodd" d="M94.4216 33.0227V31.8958H91.9414V38.8039H94.6035V36.4834C94.6035 35.3764 94.741 34.6199 95.0138 34.2162C95.2047 33.93 95.4753 33.7858 95.8214 33.7858C96.0032 33.7858 96.2518 33.8501 96.5645 33.9809L97.3854 32.1021C96.9217 31.8581 96.4935 31.7361 96.1008 31.7361C95.7282 31.7361 95.4154 31.8269 95.1603 32.0111C94.9074 32.1951 94.6611 32.5323 94.4216 33.0227H94.4216Z" fill="#FFFFFE"/>
<path fill-rule="evenodd" clip-rule="evenodd" d="M90.3382 34.2805C90.3382 33.9544 90.2739 33.6128 90.143 33.2557C90.0143 32.8983 89.8369 32.6212 89.6105 32.4259C89.2911 32.1442 88.8896 31.9579 88.4103 31.8691C87.929 31.7803 87.2945 31.7361 86.5026 31.7361C86.0078 31.7361 85.5486 31.7737 85.1249 31.8469C84.7012 31.9201 84.3684 32.0243 84.1266 32.1597C83.7872 32.3461 83.5298 32.5658 83.3501 32.8208C83.1705 33.0737 83.0329 33.4219 82.9375 33.8657L85.4665 34.1319C85.5709 33.8301 85.7061 33.6261 85.8748 33.5152C86.0922 33.3755 86.416 33.3067 86.8487 33.3067C87.1858 33.3067 87.4209 33.371 87.5541 33.5019C87.6894 33.6327 87.756 33.859 87.756 34.1852C87.4276 34.316 87.1148 34.4203 86.8198 34.5001C86.5248 34.5823 85.8813 34.7219 84.8897 34.9216C84.0623 35.0858 83.4944 35.3388 83.186 35.6781C82.8777 36.0175 82.7246 36.4501 82.7246 36.9759C82.7246 37.5349 82.9375 38.0075 83.3657 38.389C83.7916 38.7729 84.4173 38.9636 85.2403 38.9636C85.8592 38.9636 86.4028 38.8683 86.8709 38.6775C87.2147 38.5355 87.5586 38.2981 87.9046 37.9653C87.9356 38.1628 87.9667 38.307 87.9956 38.4001C88.0266 38.4933 88.0909 38.6265 88.1908 38.8039H90.6688C90.5312 38.5177 90.4402 38.2826 90.4003 38.0985C90.3582 37.9143 90.3382 37.6591 90.3382 37.3331V34.2805L90.3382 34.2805ZM86.6157 35.8645C87.0128 35.7624 87.3921 35.6471 87.756 35.5162V35.9421C87.756 36.2749 87.7027 36.5455 87.5961 36.754C87.4897 36.9627 87.31 37.1378 87.0571 37.282C86.802 37.4262 86.527 37.4995 86.2319 37.4995C85.9501 37.4995 85.7371 37.4329 85.5908 37.2998C85.4466 37.1667 85.3734 36.9937 85.3734 36.783C85.3734 36.5988 85.4466 36.4345 85.5952 36.2903C85.7371 36.1507 86.0788 36.0087 86.6157 35.8645V35.8645Z" fill="#FFFFFE"/>
<path fill-rule="evenodd" clip-rule="evenodd" d="M81.7087 32.0835C81.3759 31.0763 80.8634 30.3309 80.178 29.845C79.4903 29.3593 78.5452 29.1174 77.345 29.1174C75.8099 29.1174 74.6231 29.5411 73.7823 30.3863C72.9437 31.2338 72.5244 32.445 72.5244 34.0201C72.5244 35.2002 72.7639 36.1719 73.2409 36.9284C73.7178 37.6849 74.2836 38.2151 74.9402 38.5169C75.5992 38.8163 76.4442 38.9672 77.4826 38.9672C78.3367 38.9672 79.0398 38.8429 79.5923 38.5967C80.1469 38.3504 80.6083 37.9844 80.9811 37.4986C81.3559 37.015 81.6288 36.4093 81.8018 35.6861L79.2196 34.9074C79.0887 35.5086 78.8802 35.9679 78.5917 36.2828C78.3033 36.6001 77.8775 36.7576 77.3139 36.7576C76.7327 36.7576 76.2823 36.5624 75.9607 36.1719C75.6391 35.7793 75.4793 35.0583 75.4793 34.0023C75.4793 33.1526 75.6146 32.527 75.8831 32.13C76.238 31.5955 76.7504 31.327 77.4204 31.327C77.7155 31.327 77.9816 31.3868 78.2214 31.5088C78.4587 31.6286 78.6605 31.8017 78.8269 32.0257C78.9268 32.1589 79.0222 32.3696 79.1131 32.658L81.7087 32.0835L81.7087 32.0835Z" fill="#FFFFFE"/>
<path fill-rule="evenodd" clip-rule="evenodd" d="M71.4307 33.9809L72.2516 32.1021C71.788 31.8581 71.3598 31.7361 70.9672 31.7361C70.5944 31.7361 70.2816 31.8269 70.0266 32.0111C69.7736 32.1951 69.5275 32.5323 69.2879 33.0227V31.8958H66.8076V38.8039H69.4697V36.4834C69.4697 35.3764 69.6072 34.6199 69.88 34.2162C70.0709 33.93 70.3416 33.7858 70.6876 33.7858C70.8695 33.7858 71.118 33.8501 71.4307 33.9809H71.4307Z" fill="#FFFFFE"/>
<path fill-rule="evenodd" clip-rule="evenodd" d="M65.5679 35.7092C65.5679 34.7975 65.4193 34.0565 65.1198 33.4886C64.8203 32.9183 64.3833 32.4858 63.811 32.1863C63.2386 31.8869 62.46 31.7361 61.4706 31.7361C60.2526 31.7361 59.2965 32.0709 58.6065 32.7387C57.9144 33.4065 57.5684 34.2828 57.5684 35.3632C57.5684 36.1219 57.7414 36.783 58.0852 37.3464C58.4312 37.9076 58.8662 38.318 59.3896 38.5755C59.9154 38.8349 60.6342 38.9636 61.5504 38.9636C62.6042 38.9636 63.4138 38.8127 63.9773 38.511C64.5408 38.2116 65.0222 37.7124 65.4216 37.0203L62.8126 36.7807C62.6485 36.987 62.4932 37.1312 62.349 37.2132C62.1161 37.342 61.8676 37.4062 61.6058 37.4062C61.1932 37.4062 60.8582 37.2577 60.6032 36.9582C60.419 36.7497 60.3059 36.4323 60.2571 36.0087H65.5679V35.7092L65.5679 35.7092ZM62.4644 33.6394C62.6884 33.8613 62.8283 34.2295 62.8793 34.7442H60.2638C60.3081 34.3293 60.4101 34.0187 60.5698 33.8102C60.8228 33.4752 61.16 33.3067 61.5815 33.3067C61.9475 33.3067 62.2404 33.4175 62.4644 33.6394V33.6394Z" fill="#FFFFFE"/>
<path fill-rule="evenodd" clip-rule="evenodd" d="M56.6485 33.8427V31.8996H55.1977V29.2773L52.5488 30.6329V31.8996H51.5771V33.8428H52.5488V36.2721C52.5488 37.0419 52.6243 37.6009 52.7729 37.9448C52.9237 38.2886 53.1546 38.5458 53.4651 38.7145C53.7779 38.8832 54.2637 38.9675 54.9227 38.9675C55.4905 38.9675 56.1006 38.8965 56.7549 38.7523L56.5598 36.922C56.207 37.0351 55.9342 37.0906 55.739 37.0906C55.5216 37.0906 55.3685 37.0174 55.282 36.871C55.2266 36.7756 55.1977 36.5803 55.1977 36.2876V33.8427H56.6485H56.6485Z" fill="#FFFFFE"/>
<path fill-rule="evenodd" clip-rule="evenodd" d="M33.293 38.8077V29.2773H29.4262L27.9421 35.0762L26.4626 29.2773H22.5781V38.8077H24.9872V31.5424L26.8417 38.8077H29.0248L30.8837 31.5424V38.8077H33.293Z" fill="#FFFFFE"/>
<path fill-rule="evenodd" clip-rule="evenodd" d="M34.8887 33.8657L37.4178 34.1319C37.5221 33.8301 37.6574 33.6261 37.8259 33.5151C38.0434 33.3755 38.3672 33.3067 38.7998 33.3067C39.1371 33.3067 39.3722 33.3709 39.5053 33.5019C39.6406 33.6327 39.7073 33.859 39.7073 34.1852C39.3788 34.316 39.0661 34.4203 38.7711 34.5001C38.4759 34.5823 37.8326 34.7219 36.841 34.9216C36.0135 35.0858 35.4456 35.3387 35.1372 35.6781C34.8289 36.0175 34.6758 36.4501 34.6758 36.9759C34.6758 37.5349 34.8887 38.0075 35.3169 38.389C35.7429 38.7729 36.3685 38.9636 37.1915 38.9636C37.8104 38.9636 38.354 38.8683 38.8221 38.6775C39.166 38.5355 39.5098 38.2981 39.8559 37.9653C39.8869 38.1628 39.9179 38.307 39.9469 38.4001C39.9779 38.4933 40.0421 38.6265 40.1421 38.8039H42.62C42.4824 38.5177 42.3914 38.2826 42.3516 38.0984C42.3095 37.9143 42.2895 37.6591 42.2895 37.3331V34.2805C42.2895 33.9544 42.2251 33.6128 42.0943 33.2557C41.9656 32.8983 41.7881 32.6212 41.5617 32.4259C41.2423 32.1442 40.8408 31.9579 40.3616 31.8691C39.8802 31.7803 39.2457 31.7361 38.4538 31.7361C37.959 31.7361 37.4998 31.7737 37.0761 31.8469C36.6523 31.9201 36.3197 32.0243 36.0778 32.1597C35.7384 32.3461 35.481 32.5658 35.3014 32.8208C35.1217 33.0737 34.9842 33.4219 34.8887 33.8657V33.8657ZM38.5669 35.8645C38.964 35.7624 39.3434 35.6471 39.7073 35.5162V35.9421C39.7073 36.2749 39.654 36.5455 39.5474 36.754C39.441 36.9626 39.2613 37.1378 39.0084 37.282C38.7533 37.4262 38.4783 37.4995 38.1832 37.4995C37.9014 37.4995 37.6884 37.4329 37.542 37.2998C37.3979 37.1667 37.3247 36.9937 37.3247 36.7829C37.3247 36.5988 37.3979 36.4345 37.5465 36.2903C37.6884 36.1506 38.03 36.0087 38.5669 35.8645H38.5669Z" fill="#FFFFFE"/>
<path fill-rule="evenodd" clip-rule="evenodd" d="M44.0998 32.7188C43.8358 33.0471 43.7049 33.4397 43.7049 33.8946C43.7049 34.3116 43.8268 34.682 44.0709 35.0082C44.3171 35.332 44.6167 35.565 44.9738 35.7003C45.3333 35.8379 45.97 35.9865 46.8883 36.1462C47.5028 36.2549 47.8822 36.3459 48.0242 36.4191C48.2239 36.5233 48.3237 36.672 48.3237 36.8628C48.3237 37.0313 48.2482 37.1732 48.0952 37.2842C47.9 37.4373 47.6249 37.5127 47.2699 37.5127C46.9439 37.5127 46.6843 37.4462 46.4891 37.3131C46.2937 37.1801 46.143 36.9582 46.0343 36.6475L43.4121 36.8871C43.5629 37.5505 43.9068 38.063 44.4415 38.4223C44.976 38.7839 45.8745 38.9636 47.1345 38.9636C48.0264 38.9636 48.7319 38.8527 49.2488 38.6287C49.7656 38.4046 50.145 38.105 50.3846 37.7279C50.6264 37.3509 50.7463 36.9627 50.7463 36.5633C50.7463 36.1684 50.633 35.8068 50.4046 35.4762C50.1783 35.1457 49.8499 34.8927 49.4218 34.7153C48.9914 34.5378 48.3392 34.3981 47.4584 34.2983C46.8794 34.2295 46.5023 34.1518 46.3315 34.0631C46.1606 33.9766 46.0742 33.8501 46.0742 33.6794C46.0742 33.5285 46.1429 33.3998 46.2783 33.2932C46.4135 33.1868 46.631 33.1336 46.9282 33.1336C47.2232 33.1336 47.4739 33.2022 47.6803 33.3399C47.8312 33.4441 47.9398 33.6061 48.0042 33.8258L50.5065 33.5862C50.3336 33.1336 50.1162 32.7764 49.8543 32.5102C49.5927 32.2461 49.2665 32.051 48.8738 31.9245C48.4834 31.7981 47.8756 31.7361 47.0547 31.7361C46.276 31.7361 45.6548 31.8181 45.1913 31.98C44.7276 32.1419 44.3637 32.3882 44.0998 32.7188L44.0998 32.7188Z" fill="#FFFFFE"/>
</svg>
