<svg width="128" height="34" viewBox="0 0 128 34" fill="none" xmlns="http://www.w3.org/2000/svg">
<path fill-rule="evenodd" clip-rule="evenodd" d="M126.698 0H122.956C122.954 0 122.952 0.000683214 122.95 0.000683214L122.948 0C122.091 0 121.222 0.638955 120.979 1.45186C120.969 1.48473 120.953 1.51624 120.945 1.55048C120.945 1.55048 120.855 1.947 120.701 2.63253L115.56 25.3213C115.441 25.8342 115.361 26.1684 115.337 26.2554L115.347 26.2677C115.169 27.0608 115.659 27.7169 116.463 27.7901L116.473 27.8052H120.358C121.209 27.8052 122.073 27.1724 122.323 26.3698C122.335 26.3307 122.354 26.2944 122.364 26.2554L127.972 1.54911L127.963 1.54637C128.154 0.701275 127.595 0 126.698 0ZM107.501 22.2989C106.982 22.6173 106.433 22.8899 105.859 23.1221C105.086 23.4254 104.354 23.5843 103.677 23.5843C102.637 23.5843 101.838 23.4412 101.298 23.1351C100.757 22.8447 100.474 22.34 100.483 21.6175C100.483 20.7833 100.68 20.1362 101.09 19.6287C101.502 19.1404 102.115 18.7473 102.874 18.4542C103.63 18.2049 104.559 17.9995 105.631 17.8522C106.585 17.7351 108.471 17.5235 108.712 17.5221C108.954 17.5201 109.114 17.3906 109.006 18.0166C108.958 18.2885 108.414 20.4649 108.164 21.4545C108.092 21.751 107.687 22.1831 107.501 22.2989C107.687 22.1831 107.501 22.2989 107.501 22.2989ZM114.902 7.00229C113.314 6.13939 110.83 5.70315 107.43 5.70315C105.749 5.70315 104.059 5.83464 102.364 6.09077C101.12 6.27636 100.992 6.30718 100.219 6.47086C98.6285 6.8078 98.3831 8.35827 98.3831 8.35827L97.8724 10.4032C97.5826 11.7113 98.3479 11.6572 98.689 11.5558C99.3833 11.3517 99.7596 11.149 101.176 10.8367C102.53 10.5374 103.961 10.3135 105.103 10.3224C106.777 10.3224 108.05 10.5011 108.896 10.8449C109.743 11.2045 110.162 11.8167 110.162 12.6926C110.165 12.9008 110.17 13.0974 110.093 13.2693C110.023 13.4295 109.89 13.5843 109.49 13.637C107.1 13.7754 105.385 13.9877 103.32 14.2808C101.282 14.5602 99.4993 15.0389 98.0088 15.7018C96.4199 16.388 95.2312 17.3064 94.4117 18.4699C93.6141 19.639 93.2132 21.0545 93.211 22.7221C93.211 24.2979 93.7927 25.5834 94.9182 26.5812C96.057 27.566 97.5383 28.0536 99.3305 28.0536C100.45 28.0461 101.327 27.9673 101.955 27.8146C102.577 27.6619 103.255 27.4448 103.971 27.1428C104.506 26.925 105.084 26.61 105.693 26.2148C106.304 25.8183 106.727 25.5368 107.269 25.191L107.289 25.2238L107.136 25.8792C107.135 25.8854 107.126 25.8888 107.126 25.895L107.131 25.9073C106.957 26.6969 107.444 27.3537 108.247 27.4311L108.257 27.4448H108.328L108.331 27.4482C108.864 27.4482 110.694 27.4475 111.55 27.4448H112.147C112.186 27.4448 112.191 27.4331 112.206 27.4242C113.026 27.3263 113.813 26.6757 113.998 25.895L117.052 13.0577C117.123 12.7556 117.178 12.4071 117.211 12.0057C117.249 11.6003 117.294 11.2668 117.281 11.0257C117.288 9.20885 116.486 7.86587 114.902 7.00229ZM96.5069 4.07823C95.9857 3.09069 95.1986 2.29558 94.2033 1.67649C93.1827 1.05876 91.9701 0.627998 90.5661 0.376662C89.1776 0.139707 87.5268 0.00410906 85.6459 0L76.8944 0.00410948C75.9933 0.019176 75.1092 0.708126 74.901 1.55664L69.0171 26.4862C68.8026 27.3334 69.3878 28.0394 70.2727 28.0346L74.4719 28.0271C75.3624 28.0346 76.2697 27.3334 76.4801 26.4862L77.8995 20.4363C78.0986 19.5885 79.0038 18.8783 79.9091 18.8906H81.1027C86.2248 18.8906 90.1961 17.8661 93.0399 15.8267C95.8767 13.7769 97.3046 11.0883 97.3046 7.74418C97.2954 6.2841 97.0401 5.05412 96.5069 4.07823ZM87.4782 12.2319C86.2248 13.1195 84.4656 13.5646 82.2021 13.5646H81.1611C80.2608 13.5749 79.6791 12.8661 79.8929 12.0162L81.1477 6.72513C81.3348 5.88826 82.2485 5.17602 83.1362 5.18287L84.5113 5.17603C86.1165 5.18287 87.3172 5.44448 88.1465 5.96427C88.9617 6.49023 89.357 7.30588 89.3633 8.39272C89.3668 10.0493 88.7373 11.3238 87.4782 12.2319Z" fill="#4080D8"/>
<path fill-rule="evenodd" clip-rule="evenodd" d="M67.0612 5.70326C66.2643 5.70326 65.2191 6.33493 64.7243 7.09833C64.7243 7.09833 59.3939 16.0496 58.8704 16.9441C58.5858 17.425 58.2974 17.1193 58.2492 16.9404C58.2105 16.7229 56.5973 7.15715 56.5973 7.15715C56.4159 6.38701 55.5946 5.72593 54.5676 5.72899L51.2437 5.7339C50.4425 5.7339 49.9427 6.36251 50.121 7.12223C50.121 7.12223 52.6617 21.2286 53.1571 24.5462C53.4042 26.3812 53.1315 26.7065 53.1315 26.7065L49.8376 32.3321C49.3554 33.0949 49.6193 33.7199 50.4168 33.7199L54.2686 33.7168C55.0661 33.7168 56.1226 33.0949 56.5973 32.3309L71.4152 7.78269C71.4152 7.78269 72.8326 5.68549 71.5253 5.70326C70.634 5.71551 67.0612 5.70326 67.0612 5.70326ZM39.2413 22.2989C38.7222 22.6173 38.1743 22.8885 37.5996 23.1214C36.8273 23.4234 36.0915 23.5837 35.4163 23.5837C34.3795 23.5837 33.5783 23.4398 33.0374 23.1351C32.4972 22.844 32.2124 22.3393 32.2215 21.6161C32.2215 20.784 32.4213 20.1348 32.8299 19.628C33.2428 19.139 33.8527 18.7453 34.6123 18.4528C35.3699 18.2022 36.3019 17.9995 37.371 17.8522C38.3248 17.7351 40.2127 17.5242 40.4532 17.5208C40.6924 17.5201 40.8535 17.3893 40.7459 18.0152C40.6994 18.2871 40.1543 20.4649 39.9046 21.4538C39.8293 21.7517 39.4242 22.1838 39.2413 22.2989C39.4242 22.1838 39.2413 22.2989 39.2413 22.2989ZM46.6424 7.0016C45.0541 6.13871 42.5704 5.70315 39.171 5.70315C37.4892 5.70315 35.8003 5.83327 34.1045 6.09008C32.8581 6.27431 32.7329 6.30581 31.9591 6.46949C30.3681 6.8078 30.1233 8.3569 30.1233 8.3569L29.6126 10.4032C29.3235 11.7106 30.0895 11.6565 30.4293 11.5551C31.1221 11.351 31.5005 11.149 32.9171 10.8353C34.2691 10.5374 35.7019 10.3142 36.8421 10.3217C38.5175 10.3217 39.7892 10.4998 40.6354 10.8436C41.483 11.2031 41.9001 11.8167 41.9001 12.6919C41.9057 12.9001 41.91 13.0974 41.8347 13.2679C41.7637 13.4295 41.6286 13.5836 41.2284 13.6357C38.8418 13.776 37.1276 13.9877 35.059 14.2808C33.0212 14.5602 31.2389 15.0389 29.7477 15.7011C28.1587 16.3873 26.9714 17.3071 26.1534 18.4699C25.3529 19.6383 24.9527 21.0538 24.9513 22.7221C24.9513 24.2973 25.5337 25.5834 26.6577 26.5805C27.7972 27.5653 29.2771 28.0536 31.0693 28.0536C32.1898 28.0461 33.0656 27.9659 33.6958 27.8146C34.3169 27.6605 34.9957 27.4448 35.7089 27.1428C36.2463 26.925 36.8224 26.6086 37.4329 26.2141C38.042 25.8183 38.4669 25.5368 39.0113 25.191L39.0282 25.2232L38.8755 25.8779C38.8741 25.884 38.8657 25.8881 38.8657 25.8957L38.872 25.9059C38.6976 26.6976 39.1836 27.3537 39.9876 27.4297L39.9975 27.4448H40.0678L40.0699 27.4496C40.6045 27.4496 42.4354 27.4468 43.2886 27.4448H43.8865C43.9266 27.4448 43.9322 27.4318 43.9449 27.4236C44.7671 27.3229 45.5507 26.6737 45.7378 25.8957L48.7926 13.057C48.8616 12.7556 48.9178 12.4071 48.9488 12.0064C48.9896 11.5989 49.0339 11.2668 49.0219 11.0264C49.029 9.20816 48.2257 7.86519 46.6424 7.0016ZM27.5343 4.07823C27.0131 3.09069 26.226 2.29558 25.2307 1.67649C24.2101 1.05876 22.9974 0.627998 21.5935 0.376662C20.205 0.139707 18.5541 0.00410906 16.6733 0L7.9217 0.00410948C7.02066 0.019176 6.1365 0.708126 5.9283 1.55664L0.044451 26.4862C-0.170082 27.3334 0.415137 28.0394 1.3 28.0346L5.49923 28.0271C6.38972 28.0346 7.29709 27.3334 7.5074 26.4862L8.92684 20.4363C9.1259 19.5885 10.0312 18.8783 10.9364 18.8906H12.1301C17.2521 18.8906 21.2235 17.8661 24.0673 15.8267C26.904 13.7769 28.3319 11.0883 28.3319 7.74418C28.3228 6.2841 28.0674 5.05412 27.5343 4.07823ZM18.5056 12.2319C17.2521 13.1195 15.493 13.5646 13.2295 13.5646H12.1885C11.2881 13.5749 10.7064 12.8661 10.9202 12.0162L12.1751 6.72513C12.3622 5.88826 13.2759 5.17602 14.1636 5.18287L15.5387 5.17603C17.1438 5.18287 18.3445 5.44448 19.1738 5.96427C19.989 6.49023 20.3843 7.30588 20.3907 8.39272C20.3942 10.0493 19.7646 11.3238 18.5056 12.2319Z" fill="#265697"/>
</svg>
