<svg width="128" height="39" viewBox="0 0 128 39" fill="none" xmlns="http://www.w3.org/2000/svg">
<path d="M46.9326 37.7908L53.4342 1.21924H63.593L57.2946 37.7908H46.9326Z" fill="#005098"/>
<path d="M94.0702 1.6254C92.0384 0.812703 88.7876 0 84.7241 0C74.5654 0 67.2511 5.07938 67.2511 12.3937C67.2511 17.8794 72.3304 20.7239 76.3939 22.5525C80.4574 24.381 81.6765 25.6001 81.6765 27.2255C81.6765 29.6636 78.4257 30.8826 75.5812 30.8826C71.5177 30.8826 69.2828 30.2731 65.8288 28.8509L64.4066 28.2414L62.9844 36.5715C65.4225 37.5874 69.8923 38.6033 74.5654 38.6033C85.3337 38.6033 92.4448 33.5239 92.4448 25.8033C92.4448 21.5366 89.8035 18.2858 83.7083 15.6445C80.0511 13.8159 77.8162 12.8 77.8162 10.9715C77.8162 9.34606 79.6447 7.72066 83.7083 7.72066C87.1622 7.72066 89.6003 8.33018 91.4289 9.14289L92.4448 9.54924L94.0702 1.6254Z" fill="#005098"/>
<path d="M111.543 1.21924C109.105 1.21924 107.276 1.42241 106.261 3.86052L91.0225 37.7908H101.994L104.026 31.6955H117.029L118.248 37.7908H128L119.467 1.21924H111.543ZM106.87 25.6003C107.48 23.7717 110.934 14.832 110.934 14.832C110.934 14.832 111.746 12.5971 112.356 11.1748L112.965 14.6288C112.965 14.6288 114.997 23.7717 115.403 25.8034H106.87V25.6003Z" fill="#005098"/>
<path d="M28.242 26.819L27.2262 21.5365C25.3976 15.4412 19.5055 8.73643 13.0039 5.48562L22.1468 37.9937H33.1183L49.5755 1.42212H38.604L28.242 26.819Z" fill="#005098"/>
<path d="M0 1.21924L1.82858 1.62559C14.8318 4.67322 23.7715 12.3939 27.2255 21.5368L23.5683 4.26687C22.9588 1.82876 21.1302 1.21924 18.8953 1.21924H0Z" fill="#F6A500"/>
<path d="M0 1.21924C13.0032 4.26687 23.7715 12.1907 27.2255 21.3336L23.7715 6.90814C23.162 4.47004 21.1302 3.04781 18.8953 3.04781L0 1.21924Z" fill="#F6A500"/>
<path d="M0 1.21924C13.0032 4.26687 23.7715 12.1907 27.2255 21.3336L24.7874 13.4098C24.1779 10.9717 23.3652 8.53355 20.5207 7.51767L0 1.21924Z" fill="#F6A500"/>
</svg>
