<svg width="136" height="30" viewBox="0 0 136 30" fill="none" xmlns="http://www.w3.org/2000/svg">
<g clip-path="url(#clip0)">
<path fill-rule="evenodd" clip-rule="evenodd" d="M105.189 4.28589H112.073C112.656 4.28589 112.953 5.01838 112.544 5.44857L105.677 12.6514C105.262 13.0874 104.551 12.7851 104.551 12.1747L104.528 4.97187C104.528 4.594 104.82 4.28589 105.189 4.28589ZM128.493 30.0002H121.599C121.016 30.0002 120.719 29.2677 121.128 28.8375L127.994 21.6347C128.409 21.1987 129.121 21.501 129.121 22.1114L129.143 29.3142C129.155 29.6921 128.858 30.0002 128.493 30.0002ZM105.553 23.7687L123.183 5.3558C124.549 3.92925 126.759 3.92925 128.119 5.3558C129.485 6.78228 129.485 9.09087 128.119 10.5112L110.489 28.9303C109.129 30.3568 106.913 30.3568 105.553 28.9303C104.187 27.5038 104.187 25.1952 105.553 23.7687Z" fill="#FFD23F"/>
<path fill-rule="evenodd" clip-rule="evenodd" d="M92.1943 13.2855C93.3796 13.2855 94.3403 14.2898 94.3403 15.528V27.586C94.3403 28.8241 93.3796 29.8285 92.1943 29.8285C91.0091 29.8285 90.0483 28.8241 90.0483 27.586V15.528C90.0483 14.2898 91.0091 13.2855 92.1943 13.2855ZM19.4885 2.89711C19.5851 11.2548 19.6334 15.4346 19.6334 15.4364V20.0694C19.6334 25.4469 15.4862 29.8221 10.3888 29.8221C5.2907 29.8221 1.14355 25.4469 1.14355 20.0694V15.6986C1.14355 14.4605 2.10365 13.4561 3.28957 13.4561C4.47484 13.4561 5.43559 14.4605 5.43559 15.6986V20.0694C5.43559 22.9739 7.65732 25.3378 10.3888 25.3378C13.119 25.3378 15.3413 22.9739 15.3413 20.0694V15.5544L15.1965 2.95098C15.1821 1.71279 16.1311 0.696885 17.3431 0.681885C18.5166 0.681885 19.4748 1.66779 19.4885 2.89711ZM62.991 13.2855H72.2948C73.48 13.2855 74.4408 14.2898 74.4408 15.528C74.4408 16.7655 73.48 17.7698 72.2948 17.7698H62.991V19.6905C62.991 25.2766 58.6402 29.8216 53.2928 29.8216C47.9454 29.8216 43.5946 25.2766 43.5946 19.6905V15.6982C43.5946 14.46 44.5547 13.4563 45.7406 13.4563C46.9259 13.4563 47.8866 14.46 47.8866 15.6982V19.6905C47.8866 22.8044 50.312 25.3373 53.2928 25.3373C56.2736 25.3373 58.6989 22.8044 58.6989 19.6905V12.2696C58.6989 11.0314 59.6597 10.0278 60.845 10.0278C62.0309 10.0278 62.991 11.0314 62.991 12.2696V13.2855ZM27.8099 13.2855H35.5916C36.7769 13.2855 37.7376 14.2898 37.7376 15.528C37.7376 16.7655 36.7769 17.7698 35.5916 17.7698H25.6886C25.5418 17.7698 25.3975 17.7541 25.2585 17.7248C25.2207 17.7166 25.1867 17.6996 25.1495 17.6894C25.0503 17.6621 24.9505 17.6355 24.8571 17.5946C24.8114 17.5748 24.771 17.5448 24.7266 17.521C24.6476 17.4794 24.5667 17.4405 24.4936 17.3894C24.4505 17.3594 24.414 17.3198 24.3735 17.2871C24.3063 17.2319 24.2371 17.1794 24.1764 17.1173C24.1398 17.0791 24.1118 17.0348 24.0785 16.9946C24.0223 16.9271 23.9629 16.8616 23.9147 16.7866C23.8853 16.7416 23.865 16.6912 23.8389 16.6441C23.7959 16.5664 23.7502 16.4914 23.7162 16.4082C23.694 16.3537 23.6816 16.2944 23.664 16.2378C23.6373 16.156 23.6072 16.0762 23.5903 15.9903C23.5772 15.9269 23.5766 15.8594 23.5687 15.7946C23.5602 15.7148 23.5439 15.6371 23.5433 15.5546L23.399 2.95118C23.3847 1.713 24.3337 0.697089 25.5457 0.682089C26.7192 0.682089 27.6767 1.668 27.6911 2.89732L27.8099 13.2855ZM82.6903 13.2855C83.8756 13.2855 84.8363 14.2898 84.8363 15.528V27.586C84.8363 28.8241 83.8756 29.8285 82.6903 29.8285C81.505 29.8285 80.5443 28.8241 80.5443 27.586V15.528C80.5443 14.2898 81.505 13.2855 82.6903 13.2855ZM53.291 17.6341C52.7623 17.6341 52.2401 17.4091 51.8681 17.0204C51.4896 16.625 51.2742 16.0795 51.2742 15.5272C51.2742 14.975 51.4896 14.4295 51.8681 14.0409C52.6122 13.2568 53.9697 13.25 54.7203 14.0409C55.0924 14.4295 55.3077 14.975 55.3077 15.5272C55.3077 16.0795 55.0924 16.625 54.7203 17.0204C54.3418 17.4091 53.8262 17.6341 53.291 17.6341ZM92.1905 10.5909C91.6619 10.5909 91.1404 10.3659 90.7677 9.97725C90.3957 9.58179 90.1737 9.03634 90.1737 8.48407C90.1737 7.93179 90.3957 7.38634 90.7677 6.9977C91.2376 6.50679 91.936 6.28179 92.5887 6.41816C92.7199 6.44543 92.8432 6.48634 92.9672 6.54089C93.0847 6.59543 93.2028 6.65679 93.3138 6.73179C93.4248 6.81361 93.5292 6.90225 93.6199 6.9977C93.9926 7.38634 94.208 7.93179 94.208 8.48407C94.208 9.04316 93.9926 9.58179 93.6199 9.97725C93.5292 10.0727 93.4248 10.1613 93.3138 10.2363C93.2028 10.3113 93.0847 10.3795 92.9672 10.4341C92.8432 10.4818 92.7133 10.5227 92.5887 10.55C92.4581 10.5772 92.3211 10.5909 92.1905 10.5909ZM32.7331 26.6819C32.7854 26.8114 32.818 26.941 32.8441 27.0773C32.8702 27.2137 32.8898 27.35 32.8898 27.4864C32.8898 27.6228 32.8702 27.766 32.8441 27.9023C32.818 28.0319 32.7854 28.1682 32.7331 28.291C32.6809 28.4205 32.6222 28.5432 32.551 28.6591C32.4727 28.775 32.3879 28.8773 32.2958 28.9796C32.2045 29.075 32.1 29.1637 31.9891 29.2387C31.8781 29.3137 31.7613 29.3819 31.6432 29.4364C31.5198 29.4841 31.3951 29.525 31.2646 29.5523C31.1341 29.5796 31.0042 29.5932 30.873 29.5932C30.7425 29.5932 30.6054 29.5796 30.4749 29.5523C30.3515 29.525 30.2203 29.4841 30.1035 29.4364C29.9788 29.3819 29.862 29.3137 29.751 29.2387C29.6401 29.1637 29.5357 29.075 29.4436 28.9796C29.3522 28.8773 29.2674 28.775 29.1956 28.6591C29.1245 28.5432 29.0585 28.4205 29.0063 28.291C28.9613 28.1682 28.9215 28.0319 28.8954 27.9023C28.8693 27.766 28.8569 27.6228 28.8569 27.4864C28.8569 27.35 28.8693 27.2137 28.8954 27.0773C28.9215 26.941 28.9613 26.8114 29.0063 26.6819C29.0585 26.5591 29.1245 26.4364 29.1956 26.3205C29.2674 26.2046 29.3522 26.0955 29.4436 26C29.5357 25.9046 29.6401 25.816 29.751 25.7341C29.862 25.6591 29.9788 25.5978 30.0963 25.5432C30.2203 25.4887 30.3515 25.4478 30.4749 25.4205C30.7359 25.366 31.0042 25.366 31.2646 25.4205C31.3951 25.4478 31.5198 25.4887 31.6432 25.5432C31.7613 25.5978 31.8781 25.6591 31.9891 25.7341C32.1 25.816 32.2045 25.9046 32.2958 26C32.3879 26.0955 32.4727 26.2046 32.551 26.3205C32.6222 26.4364 32.6809 26.5591 32.7331 26.6819ZM67.3436 21.479H73.1153C74.0434 21.479 74.7953 22.2651 74.7953 23.2347C74.7953 24.2042 74.0434 24.9897 73.1153 24.9897H67.3436C66.4155 24.9897 65.6636 24.2042 65.6636 23.2347C65.6636 22.2651 66.4155 21.479 67.3436 21.479ZM33.7575 20.7762C34.6856 20.7762 35.4375 21.5623 35.4375 22.5318C35.4375 23.5014 34.6856 24.2868 33.7575 24.2868H27.9858C27.0577 24.2868 26.3058 23.5014 26.3058 22.5318C26.3058 21.5623 27.0577 20.7762 27.9858 20.7762H33.7575Z" fill="#303030"/>
</g>
<defs>
<clipPath id="clip0">
<rect width="136" height="30" fill="white"/>
</clipPath>
</defs>
</svg>
