<svg id="ezbljmqbgx0f1" xmlns="http://www.w3.org/2000/svg" xmlns:xlink="http://www.w3.org/1999/xlink" viewBox="0 0 100 119" shape-rendering="geometricPrecision" text-rendering="geometricPrecision" width="100" height="119"><style><![CDATA[#ezbljmqbgx0f2_to {animation: ezbljmqbgx0f2_to__to 4000ms linear infinite normal forwards}@keyframes ezbljmqbgx0f2_to__to { 0% {transform: translate(50px,58.500000px);animation-timing-function: cubic-bezier(0.420000,0,0.580000,1)} 50% {transform: translate(50px,98.351241px);animation-timing-function: cubic-bezier(0.420000,0,0.580000,1)} 100% {transform: translate(50px,58.500000px)} }]]></style><defs><linearGradient id="ezbljmqbgx0f5-fill" x1="0" y1="1" x2="102.891000" y2="75.363900" spreadMethod="pad" gradientUnits="userSpaceOnUse"><stop id="ezbljmqbgx0f5-fill-0" offset="0%" stop-color="rgb(255,137,70)"/><stop id="ezbljmqbgx0f5-fill-1" offset="100%" stop-color="rgb(255,32,32)"/></linearGradient></defs><g id="ezbljmqbgx0f2_to" transform="translate(50,58.500000)"><g id="ezbljmqbgx0f2" transform="translate(-50,-59.500000)" clip-path="url(#ezbljmqbgx0f9)"><g id="ezbljmqbgx0f3"><g id="ezbljmqbgx0f4"><path id="ezbljmqbgx0f5" d="M9,1C4.029440,1,0,5.029440,0,10L0,54.256900C0,59.227400,4.029430,63.256900,9,63.256900L36.082500,63.256900L47.907800,78.410600C48.708500,79.436800,50.260500,79.436800,51.061300,78.410600L62.886600,63.256900L91,63.256900C95.970600,63.256900,100,59.227400,100,54.256900L100,10C100,5.029440,95.970600,1,91,1L9,1Z" clip-rule="evenodd" fill="url(#ezbljmqbgx0f5-fill)" fill-rule="evenodd" stroke="none" stroke-width="1"/></g><path id="ezbljmqbgx0f6" d="M30.978600,36.423500C31.311900,36.423500,31.600200,36.393500,31.843600,36.333500C32.090200,36.276900,32.293600,36.185200,32.453600,36.058500C32.613600,35.931900,32.731900,35.766900,32.808600,35.563500C32.885200,35.360200,32.923600,35.113500,32.923600,34.823500C32.603600,34.740200,32.290200,34.656900,31.983600,34.573500C31.853600,34.540200,31.716900,34.505200,31.573600,34.468500C31.430200,34.428500,31.286900,34.390200,31.143600,34.353500C31.003600,34.313500,30.865200,34.276900,30.728600,34.243500C30.595200,34.210200,30.471900,34.178500,30.358600,34.148500C30.201900,33.768500,30.128600,33.396900,30.138600,33.033500C30.148600,32.666900,30.221900,32.325200,30.358600,32.008500C30.495200,31.691900,30.688600,31.408500,30.938600,31.158500C31.188600,30.905200,31.476900,30.703500,31.803600,30.553500C32.130200,30.403500,32.486900,30.313500,32.873600,30.283500C33.260200,30.250200,33.660200,30.293500,34.073600,30.413500L33.838600,31.318500C33.611900,31.248500,33.381900,31.215200,33.148600,31.218500C32.915200,31.218500,32.690200,31.251900,32.473600,31.318500C32.260200,31.381900,32.061900,31.475200,31.878600,31.598500C31.695200,31.721900,31.538600,31.870200,31.408600,32.043500C31.281900,32.213500,31.188600,32.406900,31.128600,32.623500C31.071900,32.836900,31.060200,33.066900,31.093600,33.313500L33.008600,33.788500C33.275200,33.861900,33.475200,33.981900,33.608600,34.148500C33.741900,34.315200,33.808600,34.518500,33.808600,34.758500C33.808600,35.195200,33.756900,35.576900,33.653600,35.903500C33.550200,36.233500,33.385200,36.506900,33.158600,36.723500C32.931900,36.940200,32.638600,37.103500,32.278600,37.213500C31.921900,37.323500,31.488600,37.378500,30.978600,37.378500L29.873600,37.378500C29.620200,37.378500,29.375200,37.346900,29.138600,37.283500C28.901900,37.220200,28.678600,37.131900,28.468600,37.018500C28.258600,36.905200,28.065200,36.768500,27.888600,36.608500C27.711900,36.448500,27.556900,36.271900,27.423600,36.078500C27.266900,35.825200,27.148600,35.546900,27.068600,35.243500C26.988600,34.940200,26.948600,34.620200,26.948600,34.283500C26.948600,33.866900,27.013600,33.418500,27.143600,32.938500C27.276900,32.455200,27.470200,31.945200,27.723600,31.408500C27.873600,31.478500,28.013600,31.546900,28.143600,31.613500C28.273600,31.676900,28.410200,31.743500,28.553600,31.813500C28.113600,32.753500,27.893600,33.568500,27.893600,34.258500C27.893600,34.505200,27.923600,34.740200,27.983600,34.963500C28.043600,35.186900,28.126900,35.388500,28.233600,35.568500C28.403600,35.835200,28.633600,36.043500,28.923600,36.193500C29.213600,36.346900,29.530200,36.423500,29.873600,36.423500L30.978600,36.423500ZM38.016900,34.618500C37.700300,34.615200,37.426900,34.591900,37.196900,34.548500C36.970300,34.501900,36.776900,34.436900,36.616900,34.353500C36.460300,34.266900,36.333600,34.160200,36.236900,34.033500C36.143600,33.903500,36.070300,33.753500,36.016900,33.583500C35.963600,33.410200,35.928600,33.216900,35.911900,33.003500C35.895300,32.790200,35.886900,32.553500,35.886900,32.293500L35.886900,27.483500L36.831900,27.483500L36.831900,32.293500C36.831900,32.583500,36.840300,32.818500,36.856900,32.998500C36.876900,33.178500,36.925300,33.318500,37.001900,33.418500C37.081900,33.515200,37.200300,33.581900,37.356900,33.618500C37.516900,33.651900,37.736900,33.670200,38.016900,33.673500L38.016900,34.618500ZM41.104600,33.328500C41.227900,33.275200,41.341300,33.208500,41.444600,33.128500C41.551300,33.048500,41.642900,32.958500,41.719600,32.858500C41.799600,32.755200,41.861300,32.643500,41.904600,32.523500C41.947900,32.403500,41.969600,32.273500,41.969600,32.133500C41.969600,31.966900,41.934600,31.826900,41.864600,31.713500C41.794600,31.596900,41.711300,31.503500,41.614600,31.433500C41.517900,31.360200,41.416300,31.308500,41.309600,31.278500C41.206300,31.245200,41.117900,31.228500,41.044600,31.228500C40.907900,31.228500,40.781300,31.250200,40.664600,31.293500C40.551300,31.333500,40.451300,31.390200,40.364600,31.463500C40.281300,31.536900,40.214600,31.625200,40.164600,31.728500C40.117900,31.831900,40.094600,31.943500,40.094600,32.063500C40.094600,32.206900,40.112900,32.336900,40.149600,32.453500C40.189600,32.566900,40.249600,32.673500,40.329600,32.773500C40.412900,32.870200,40.517900,32.963500,40.644600,33.053500C40.771300,33.143500,40.924600,33.235200,41.104600,33.328500ZM42.379600,29.358500C42.746300,29.741900,43.084600,30.100200,43.394600,30.433500C43.527900,30.576900,43.661300,30.721900,43.794600,30.868500C43.927900,31.011900,44.051300,31.150200,44.164600,31.283500C44.281300,31.413500,44.382900,31.533500,44.469600,31.643500C44.559600,31.750200,44.626300,31.836900,44.669600,31.903500C44.759600,32.050200,44.832900,32.191900,44.889600,32.328500C44.949600,32.465200,44.989600,32.603500,45.009600,32.743500C45.032900,32.883500,45.037900,33.026900,45.024600,33.173500C45.011300,33.320200,44.979600,33.478500,44.929600,33.648500C44.876300,33.841900,44.791300,34.018500,44.674600,34.178500C44.561300,34.335200,44.422900,34.470200,44.259600,34.583500C44.096300,34.696900,43.911300,34.783500,43.704600,34.843500C43.497900,34.906900,43.274600,34.938500,43.034600,34.938500C42.807900,34.938500,42.572900,34.908500,42.329600,34.848500C42.086300,34.788500,41.834600,34.695200,41.574600,34.568500C41.501300,34.538500,41.432900,34.508500,41.369600,34.478500C41.312900,34.451900,41.254600,34.425200,41.194600,34.398500C41.137900,34.371900,41.091300,34.348500,41.054600,34.328500C40.741300,34.425200,40.374600,34.498500,39.954600,34.548500C39.534600,34.595200,39.081300,34.618500,38.594600,34.618500L37.859600,34.618500L37.859600,33.673500L38.594600,33.673500C38.811300,33.673500,39.034600,33.670200,39.264600,33.663500C39.497900,33.656900,39.704600,33.641900,39.884600,33.618500C39.644600,33.408500,39.469600,33.178500,39.359600,32.928500C39.249600,32.675200,39.194600,32.386900,39.194600,32.063500C39.194600,31.810200,39.241300,31.576900,39.334600,31.363500C39.427900,31.146900,39.556300,30.960200,39.719600,30.803500C39.886300,30.646900,40.081300,30.525200,40.304600,30.438500C40.531300,30.348500,40.777900,30.303500,41.044600,30.303500C41.244600,30.303500,41.427900,30.331900,41.594600,30.388500C41.761300,30.445200,41.912900,30.521900,42.049600,30.618500C42.186300,30.711900,42.304600,30.821900,42.404600,30.948500C42.507900,31.071900,42.594600,31.201900,42.664600,31.338500C42.734600,31.471900,42.786300,31.608500,42.819600,31.748500C42.856300,31.885200,42.874600,32.013500,42.874600,32.133500C42.874600,32.476900,42.809600,32.786900,42.679600,33.063500C42.552900,33.336900,42.364600,33.578500,42.114600,33.788500C42.254600,33.845200,42.402900,33.891900,42.559600,33.928500C42.719600,33.965200,42.877900,33.983500,43.034600,33.983500C43.134600,33.983500,43.232900,33.976900,43.329600,33.963500C43.429600,33.950200,43.522900,33.923500,43.609600,33.883500C43.699600,33.843500,43.781300,33.790200,43.854600,33.723500C43.927900,33.653500,43.991300,33.563500,44.044600,33.453500C44.111300,33.316900,44.127900,33.166900,44.094600,33.003500C44.061300,32.836900,43.991300,32.660200,43.884600,32.473500C43.777900,32.286900,43.642900,32.093500,43.479600,31.893500C43.316300,31.690200,43.136300,31.483500,42.939600,31.273500C42.742900,31.063500,42.537900,30.853500,42.324600,30.643500C42.111300,30.433500,41.902900,30.225200,41.699600,30.018500L42.379600,29.358500ZM49.885100,36.433500C50.388500,36.433500,50.811800,36.395200,51.155100,36.318500C51.498500,36.241900,51.770100,36.123500,51.970100,35.963500C52.143500,35.823500,52.270100,35.645200,52.350100,35.428500C52.433500,35.211900,52.475100,34.941900,52.475100,34.618500L51.555100,34.618500C51.321800,34.618500,51.085100,34.583500,50.845100,34.513500C50.605100,34.443500,50.386800,34.328500,50.190100,34.168500C49.996800,34.008500,49.838500,33.800200,49.715100,33.543500C49.591800,33.283500,49.530100,32.966900,49.530100,32.593500C49.530100,32.373500,49.548500,32.175200,49.585100,31.998500C49.625100,31.818500,49.673500,31.658500,49.730100,31.518500C49.790100,31.378500,49.855100,31.256900,49.925100,31.153500C49.995100,31.050200,50.063500,30.961900,50.130100,30.888500C50.313500,30.705200,50.523500,30.563500,50.760100,30.463500C50.996800,30.363500,51.250100,30.313500,51.520100,30.313500C51.756800,30.313500,51.978500,30.350200,52.185100,30.423500C52.391800,30.496900,52.576800,30.606900,52.740100,30.753500C53.190100,31.173500,53.415100,31.831900,53.415100,32.728500L53.415100,33.673500L54.165100,33.673500L54.165100,34.618500L53.415100,34.618500C53.415100,35.091900,53.345100,35.498500,53.205100,35.838500C53.068500,36.181900,52.855100,36.468500,52.565100,36.698500C52.271800,36.928500,51.906800,37.098500,51.470100,37.208500C51.036800,37.321900,50.508500,37.378500,49.885100,37.378500L49.885100,36.433500ZM51.520100,31.258500C51.190100,31.258500,50.933500,31.375200,50.750100,31.608500C50.566800,31.841900,50.475100,32.170200,50.475100,32.593500C50.475100,33.023500,50.605100,33.321900,50.865100,33.488500C50.928500,33.528500,50.993500,33.561900,51.060100,33.588500C51.126800,33.611900,51.191800,33.630200,51.255100,33.643500C51.318500,33.653500,51.375100,33.661900,51.425100,33.668500C51.478500,33.671900,51.521800,33.673500,51.555100,33.673500L52.475100,33.673500L52.475100,32.728500C52.475100,32.485200,52.456800,32.280200,52.420100,32.113500C52.383500,31.943500,52.336800,31.803500,52.280100,31.693500C52.223500,31.583500,52.158500,31.500200,52.085100,31.443500C52.015100,31.383500,51.945100,31.340200,51.875100,31.313500C51.805100,31.286900,51.738500,31.271900,51.675100,31.268500C51.611800,31.261900,51.560100,31.258500,51.520100,31.258500ZM57.510800,30.548500C57.517500,30.568500,57.530800,30.621900,57.550800,30.708500C57.570800,30.795200,57.592500,30.903500,57.615800,31.033500C57.642500,31.160200,57.670800,31.301900,57.700800,31.458500C57.730800,31.611900,57.757500,31.768500,57.780800,31.928500C57.804200,32.085200,57.824200,32.236900,57.840800,32.383500C57.857500,32.530200,57.865800,32.658500,57.865800,32.768500C57.865800,33.088500,57.812500,33.365200,57.705800,33.598500C57.602500,33.828500,57.465800,34.020200,57.295800,34.173500C57.129200,34.323500,56.940800,34.435200,56.730800,34.508500C56.520800,34.581900,56.309200,34.618500,56.095800,34.618500L54.025800,34.618500L54.025800,33.673500L56.095800,33.673500C56.145800,33.673500,56.215800,33.666900,56.305800,33.653500C56.399200,33.636900,56.490800,33.598500,56.580800,33.538500C56.674200,33.478500,56.754200,33.388500,56.820800,33.268500C56.890800,33.148500,56.925800,32.981900,56.925800,32.768500C56.925800,32.695200,56.919200,32.603500,56.905800,32.493500C56.895800,32.380200,56.880800,32.260200,56.860800,32.133500C56.844200,32.003500,56.824200,31.871900,56.800800,31.738500C56.777500,31.601900,56.754200,31.473500,56.730800,31.353500C56.707500,31.233500,56.685800,31.126900,56.665800,31.033500C56.645800,30.940200,56.629200,30.870200,56.615800,30.823500L57.510800,30.548500ZM57.880800,36.523500L57.070800,37.333500L56.290800,36.523500L57.080800,35.723500L57.880800,36.523500ZM55.965800,36.533500L55.155800,37.343500L54.375800,36.533500L55.165800,35.733500L55.965800,36.533500ZM64.822200,33.673500L64.822200,34.618500L64.637200,34.618500C64.140500,34.618500,63.682200,34.411900,63.262200,33.998500C63.012200,34.335200,62.573800,34.548500,61.947200,34.638500C61.830500,34.655200,61.707200,34.668500,61.577200,34.678500C61.447200,34.688500,61.312200,34.693500,61.172200,34.693500C61.002200,34.693500,60.830500,34.685200,60.657200,34.668500C60.483800,34.655200,60.313800,34.633500,60.147200,34.603500C59.983800,34.570200,59.825500,34.528500,59.672200,34.478500C59.518800,34.425200,59.380500,34.363500,59.257200,34.293500L58.847200,34.053500L59.317200,33.228500L59.732200,33.468500C59.848800,33.535200,59.990500,33.590200,60.157200,33.633500C60.327200,33.673500,60.507200,33.703500,60.697200,33.723500C60.887200,33.740200,61.078800,33.746900,61.272200,33.743500C61.465500,33.736900,61.645500,33.721900,61.812200,33.698500C62.005500,33.668500,62.163800,33.626900,62.287200,33.573500C62.413800,33.516900,62.493800,33.453500,62.527200,33.383500C62.573800,33.330200,62.580500,33.250200,62.547200,33.143500C62.517200,33.036900,62.462200,32.921900,62.382200,32.798500L60.507200,29.943500L61.302200,29.423500L63.242200,32.383500C63.342200,32.526900,63.442200,32.675200,63.542200,32.828500C63.645500,32.978500,63.753800,33.116900,63.867200,33.243500C63.980500,33.366900,64.098800,33.470200,64.222200,33.553500C64.348800,33.633500,64.487200,33.673500,64.637200,33.673500L64.822200,33.673500ZM68.091900,30.548500C68.098600,30.568500,68.111900,30.621900,68.131900,30.708500C68.151900,30.795200,68.173600,30.903500,68.196900,31.033500C68.223600,31.160200,68.251900,31.301900,68.281900,31.458500C68.311900,31.611900,68.338600,31.768500,68.361900,31.928500C68.385200,32.085200,68.405200,32.236900,68.421900,32.383500C68.438600,32.530200,68.446900,32.658500,68.446900,32.768500C68.446900,33.088500,68.393600,33.365200,68.286900,33.598500C68.183600,33.828500,68.046900,34.020200,67.876900,34.173500C67.710200,34.323500,67.521900,34.435200,67.311900,34.508500C67.101900,34.581900,66.890200,34.618500,66.676900,34.618500L64.606900,34.618500L64.606900,33.673500L66.676900,33.673500C66.726900,33.673500,66.796900,33.666900,66.886900,33.653500C66.980200,33.636900,67.071900,33.598500,67.161900,33.538500C67.255200,33.478500,67.335200,33.388500,67.401900,33.268500C67.471900,33.148500,67.506900,32.981900,67.506900,32.768500C67.506900,32.695200,67.500200,32.603500,67.486900,32.493500C67.476900,32.380200,67.461900,32.260200,67.441900,32.133500C67.425200,32.003500,67.405200,31.871900,67.381900,31.738500C67.358600,31.601900,67.335200,31.473500,67.311900,31.353500C67.288600,31.233500,67.266900,31.126900,67.246900,31.033500C67.226900,30.940200,67.210200,30.870200,67.196900,30.823500L68.091900,30.548500ZM68.461900,36.523500L67.651900,37.333500L66.871900,36.523500L67.661900,35.723500L68.461900,36.523500ZM66.546900,36.533500L65.736900,37.343500L64.956900,36.533500L65.746900,35.733500L66.546900,36.533500ZM70.290300,36.433500C70.793600,36.433500,71.217000,36.395200,71.560300,36.318500C71.903600,36.241900,72.175300,36.123500,72.375300,35.963500C72.548600,35.823500,72.675300,35.645200,72.755300,35.428500C72.838600,35.211900,72.880300,34.941900,72.880300,34.618500L71.960300,34.618500C71.727000,34.618500,71.490300,34.583500,71.250300,34.513500C71.010300,34.443500,70.792000,34.328500,70.595300,34.168500C70.402000,34.008500,70.243600,33.800200,70.120300,33.543500C69.997000,33.283500,69.935300,32.966900,69.935300,32.593500C69.935300,32.373500,69.953600,32.175200,69.990300,31.998500C70.030300,31.818500,70.078600,31.658500,70.135300,31.518500C70.195300,31.378500,70.260300,31.256900,70.330300,31.153500C70.400300,31.050200,70.468600,30.961900,70.535300,30.888500C70.718600,30.705200,70.928600,30.563500,71.165300,30.463500C71.402000,30.363500,71.655300,30.313500,71.925300,30.313500C72.162000,30.313500,72.383600,30.350200,72.590300,30.423500C72.797000,30.496900,72.982000,30.606900,73.145300,30.753500C73.595300,31.173500,73.820300,31.831900,73.820300,32.728500L73.820300,33.673500L73.820300,34.618500C73.820300,35.091900,73.750300,35.498500,73.610300,35.838500C73.473600,36.181900,73.260300,36.468500,72.970300,36.698500C72.677000,36.928500,72.312000,37.098500,71.875300,37.208500C71.442000,37.321900,70.913600,37.378500,70.290300,37.378500L70.290300,36.433500ZM71.925300,31.258500C71.595300,31.258500,71.338600,31.375200,71.155300,31.608500C70.972000,31.841900,70.880300,32.170200,70.880300,32.593500C70.880300,33.023500,71.010300,33.321900,71.270300,33.488500C71.333600,33.528500,71.398600,33.561900,71.465300,33.588500C71.532000,33.611900,71.597000,33.630200,71.660300,33.643500C71.723600,33.653500,71.780300,33.661900,71.830300,33.668500C71.883600,33.671900,71.927000,33.673500,71.960300,33.673500L72.880300,33.673500L72.880300,32.728500C72.880300,32.485200,72.862000,32.280200,72.825300,32.113500C72.788600,31.943500,72.742000,31.803500,72.685300,31.693500C72.628600,31.583500,72.563600,31.500200,72.490300,31.443500C72.420300,31.383500,72.350300,31.340200,72.280300,31.313500C72.210300,31.286900,72.143600,31.271900,72.080300,31.268500C72.017000,31.261900,71.965300,31.258500,71.925300,31.258500Z" fill="rgb(255,255,255)" stroke="none" stroke-width="1"/><path id="ezbljmqbgx0f7" d="M58.877700,8C55.389100,8,53.129400,10.465400,50.735600,13.076800C50.658300,13.160900,50.577700,13.248300,50.499600,13.333200C50.420700,13.248300,50.340200,13.160200,50.262000,13.076000C47.869000,10.465400,45.608500,8,42.120800,8C38.194200,8,35,10.916200,35,14.500000C35,18.083800,38.194900,21,42.120800,21C45.692200,21,48.004700,18.440200,50.452300,15.730300L50.500400,15.677900L50.547000,15.728700C52.995300,18.439400,55.306200,21,58.879200,21C62.805800,21,66,18.083800,66,14.500000C66,10.916200,62.804300,8,58.877700,8ZM49.283300,14.663500C46.887100,17.317000,44.993700,19.412500,42.120800,19.412500C39.064700,19.412500,36.578500,17.209100,36.578500,14.500000C36.578500,11.790900,39.064700,9.587500,42.120800,9.587500C44.917100,9.587500,46.764000,11.601200,49.101800,14.151500C49.209900,14.269000,49.318100,14.387300,49.427000,14.505600L49.283300,14.663500ZM58.877700,19.413300C56.003900,19.413300,54.111300,17.317000,51.714300,14.663500L51.572200,14.506400C51.681100,14.388100,51.788500,14.270600,51.895800,14.153100C54.234400,11.602800,56.081300,9.588290,58.877700,9.588290C61.933700,9.588290,64.419900,11.791700,64.419900,14.500800C64.419900,17.209900,61.933700,19.413300,58.877700,19.413300Z" fill="rgb(255,255,255)" stroke="none" stroke-width="1"/><path id="ezbljmqbgx0f8" d="M25.429300,55.583300L25.429300,54.380600L26.307500,54.380600C26.744500,54.380600,27.122000,54.327600,27.440200,54.221500C27.762600,54.119700,28.027800,53.960600,28.235700,53.744200C28.447800,53.527900,28.602600,53.252100,28.700200,52.917000C28.802000,52.581800,28.852900,52.183000,28.852900,51.720600L28.852900,47.749700L30.055700,47.749700L30.055700,51.720600C30.055700,52.327300,29.975100,52.868200,29.813900,53.343300C29.656900,53.822700,29.421400,54.227900,29.107500,54.558800C28.793500,54.889700,28.401100,55.142100,27.930200,55.316100C27.463500,55.494200,26.922600,55.583300,26.307500,55.583300L25.429300,55.583300ZM34.826900,52.051500C34.423900,52.047300,34.076000,52.017600,33.783300,51.962400C33.494800,51.903000,33.248700,51.820300,33.045100,51.714200C32.845700,51.603900,32.684500,51.468200,32.561500,51.307000C32.442700,51.141500,32.349300,50.950600,32.281500,50.734200C32.213600,50.513600,32.169000,50.267600,32.147800,49.996100C32.126600,49.724500,32.116000,49.423300,32.116000,49.092400L32.116000,42.970600L33.318700,42.970600L33.318700,49.092400C33.318700,49.461500,33.329300,49.760600,33.350500,49.989700C33.376000,50.218800,33.437500,50.397000,33.535100,50.524200C33.636900,50.647300,33.787500,50.732100,33.986900,50.778800C34.190500,50.821200,34.470500,50.844500,34.826900,50.848800L34.826900,52.051500ZM42.123000,52.051500C41.817600,52.051500,41.531200,52.007000,41.263900,51.917900C40.996600,51.828800,40.754800,51.701500,40.538500,51.536100C40.423900,51.714200,40.296600,51.858500,40.156600,51.968800C40.020900,52.074800,39.883000,52.155500,39.743000,52.210600C39.607300,52.270000,39.475700,52.308200,39.348500,52.325200C39.221200,52.346400,39.110900,52.357000,39.017600,52.357000C38.809700,52.357000,38.610300,52.335800,38.419400,52.293300C38.228500,52.250900,38.033300,52.189400,37.833900,52.108800C37.634500,52.032400,37.424500,51.937000,37.203900,51.822400C36.987600,51.707900,36.747900,51.578500,36.484800,51.434200C36.137000,51.845800,35.689400,52.051500,35.142100,52.051500L34.709400,52.051500L34.709400,50.848800L35.142100,50.848800C35.303300,50.848800,35.434800,50.789400,35.536600,50.670600C35.642700,50.551800,35.733900,50.397000,35.810300,50.206100C35.886600,50.015200,35.956600,49.796700,36.020300,49.550600C36.083900,49.304500,36.156000,49.052100,36.236600,48.793300C36.321500,48.534500,36.421200,48.282100,36.535700,48.036100C36.650300,47.790000,36.794500,47.571500,36.968500,47.380600C37.146600,47.189700,37.360900,47.034800,37.611200,46.916100C37.865700,46.797300,38.173300,46.737900,38.533900,46.737900C38.949700,46.737900,39.310300,46.818500,39.615700,46.979700C39.925400,47.136700,40.182100,47.348800,40.385700,47.616100C40.589400,47.883300,40.740000,48.190900,40.837600,48.538800C40.939400,48.886700,40.990300,49.247300,40.990300,49.620600C40.990300,49.900600,41.039100,50.123300,41.136600,50.288800C41.238500,50.450000,41.353000,50.573000,41.480300,50.657900C41.611800,50.738500,41.739100,50.791500,41.862100,50.817000C41.989400,50.838200,42.076300,50.848800,42.123000,50.848800L42.345700,50.848800L42.345700,52.051500L42.123000,52.051500ZM39.017600,51.154200C39.051500,51.154200,39.093900,51.152100,39.144800,51.147900C39.195700,51.143600,39.250900,51.126700,39.310300,51.097000C39.373900,51.067300,39.435400,51.022700,39.494800,50.963300C39.558500,50.899700,39.613600,50.812700,39.660300,50.702400C39.711200,50.587900,39.751500,50.443600,39.781200,50.269700C39.815100,50.091500,39.832100,49.875200,39.832100,49.620600C39.832100,49.573900,39.827900,49.499700,39.819400,49.397900C39.810900,49.296100,39.791800,49.183600,39.762100,49.060600C39.732400,48.933300,39.687900,48.803900,39.628500,48.672400C39.573300,48.540900,39.497000,48.420000,39.399400,48.309700C39.301800,48.199400,39.183000,48.110300,39.043000,48.042400C38.903000,47.970300,38.733300,47.934200,38.533900,47.934200C38.347300,47.934200,38.188200,47.968200,38.056600,48.036100C37.929400,48.099700,37.821200,48.188800,37.732100,48.303300C37.643000,48.417900,37.568800,48.553600,37.509400,48.710600C37.450000,48.863300,37.394800,49.030900,37.343900,49.213300C37.293000,49.391500,37.242100,49.580300,37.191200,49.779700C37.140300,49.974800,37.080900,50.170000,37.013000,50.365100C37.233600,50.475500,37.437300,50.579400,37.623900,50.677000C37.810600,50.774500,37.984500,50.859400,38.145700,50.931500C38.307000,50.999400,38.457600,51.054500,38.597600,51.097000C38.741800,51.135200,38.881800,51.154200,39.017600,51.154200ZM47.121600,52.038800C46.722800,52.038800,46.368600,51.981500,46.058900,51.867000C45.749200,51.748200,45.488300,51.578500,45.276100,51.357900C45.055500,51.595500,44.798900,51.771500,44.506100,51.886100C44.213400,51.996400,43.918600,52.051500,43.621600,52.051500L42.221600,52.051500L42.221600,50.848800L43.621600,50.848800C43.685200,50.848800,43.776400,50.840300,43.895200,50.823300C44.014000,50.802100,44.130700,50.753300,44.245200,50.677000C44.359800,50.596400,44.459500,50.477600,44.544300,50.320600C44.633400,50.163600,44.678000,49.949400,44.678000,49.677900L44.678000,49.652400L44.678000,47.749700L45.880700,47.749700L45.880700,49.652400C45.880700,50.063900,45.976100,50.365200,46.167100,50.556100C46.362200,50.747000,46.680400,50.842400,47.121600,50.842400C47.185200,50.842400,47.274300,50.831800,47.388900,50.810600C47.507700,50.785200,47.624300,50.732100,47.738900,50.651500C47.857700,50.570900,47.959500,50.452100,48.044300,50.295200C48.133400,50.138200,48.178000,49.923900,48.178000,49.652400L48.178000,47.749700L49.374300,47.749700L49.374300,49.652400C49.374300,50.063900,49.474000,50.367300,49.673400,50.562400C49.872800,50.757600,50.193100,50.855200,50.634300,50.855200C50.702200,50.855200,50.793400,50.842400,50.908000,50.817000C51.022500,50.787300,51.134900,50.730000,51.245200,50.645200C51.359800,50.560300,51.457400,50.439400,51.538000,50.282400C51.618600,50.125500,51.658900,49.915500,51.658900,49.652400C51.658900,49.559100,51.650400,49.442400,51.633400,49.302400C51.620700,49.162400,51.601600,49.011800,51.576100,48.850600C51.554900,48.689400,51.529500,48.526100,51.499800,48.360600C51.470100,48.190900,51.440400,48.033900,51.410700,47.889700C51.381000,47.741200,51.353400,47.609700,51.328000,47.495200C51.302500,47.376400,51.281300,47.289400,51.264300,47.234200L52.403400,46.871500C52.411900,46.897000,52.428900,46.964800,52.454300,47.075200C52.479800,47.181200,52.509500,47.314800,52.543400,47.476100C52.577400,47.633000,52.611300,47.809100,52.645200,48.004200C52.683400,48.199400,52.717400,48.396700,52.747100,48.596100C52.781000,48.791200,52.808600,48.982100,52.829800,49.168800C52.851000,49.351200,52.861600,49.512400,52.861600,49.652400C52.861600,50.055500,52.795800,50.407600,52.664300,50.708800C52.532800,51.005800,52.361000,51.253900,52.148900,51.453300C51.941000,51.648500,51.703400,51.797000,51.436100,51.898800C51.168900,51.996400,50.901600,52.047300,50.634300,52.051500C50.227100,52.051500,49.866400,51.992100,49.552500,51.873300C49.242800,51.750300,48.979800,51.574200,48.763400,51.345200C48.542800,51.578500,48.286100,51.752400,47.993400,51.867000C47.704900,51.981500,47.414300,52.038800,47.121600,52.038800ZM49.737100,43.136100L48.833400,44.020600L47.942500,43.136100L48.858900,42.226100L49.737100,43.136100ZM50.048900,46.012400L49.043400,44.994200L50.036100,43.963300L51.067100,44.994200L50.048900,46.012400ZM47.611600,45.999700L46.606100,44.981500L47.598900,43.950600L48.629800,44.981500L47.611600,45.999700ZM67.594100,52.051500C67.772300,52.399400,67.867800,52.728200,67.880500,53.037900C67.897400,53.347600,67.848700,53.631800,67.734100,53.890600C67.619600,54.149400,67.445600,54.382700,67.212300,54.590600C66.979000,54.798500,66.703200,54.972400,66.385000,55.112400C66.066800,55.256700,65.712600,55.367000,65.322300,55.443300C64.932000,55.523900,64.520500,55.564200,64.087800,55.564200L62.274100,55.564200C61.603800,55.564200,61.001400,55.417900,60.466800,55.125200C59.932300,54.832400,59.495300,54.427300,59.155900,53.909700C58.926800,53.544800,58.761400,53.139700,58.659600,52.694200C58.562000,52.253000,58.528100,51.782100,58.557800,51.281500C58.587400,50.776700,58.680800,50.246400,58.837800,49.690600C58.999000,49.134800,59.223800,48.560000,59.512300,47.966100L60.581400,48.487900C60.106200,49.489100,59.834700,50.397000,59.766800,51.211500C59.703200,52.021800,59.843200,52.704800,60.186800,53.260600C60.403200,53.612700,60.691700,53.882100,61.052300,54.068800C61.417100,54.255500,61.824400,54.348800,62.274100,54.348800L64.087800,54.348800C64.325300,54.348800,64.558700,54.329700,64.787800,54.291500C65.016800,54.257600,65.231100,54.208800,65.430500,54.145200C65.629900,54.081500,65.810200,54.005200,65.971400,53.916100C66.132600,53.831200,66.266200,53.735800,66.372300,53.629700C66.482600,53.523600,66.559000,53.409100,66.601400,53.286100C66.643800,53.167300,66.645900,53.044200,66.607800,52.917000C66.556800,52.751500,66.438100,52.611500,66.251400,52.497000C66.064700,52.386700,65.839900,52.297600,65.576800,52.229700C65.313800,52.166100,65.029600,52.119400,64.724100,52.089700C64.418700,52.064200,64.123800,52.051500,63.839600,52.051500L63.884100,50.848800L69.369600,50.848800L69.369600,52.051500L67.594100,52.051500ZM72.601700,46.871500C72.610200,46.897000,72.627200,46.964800,72.652600,47.075200C72.678100,47.185500,72.705600,47.323300,72.735300,47.488800C72.769300,47.650000,72.805300,47.830300,72.843500,48.029700C72.881700,48.224800,72.915600,48.424200,72.945300,48.627900C72.975000,48.827300,73.000500,49.020300,73.021700,49.207000C73.042900,49.393600,73.053500,49.557000,73.053500,49.697000C73.053500,50.104200,72.985600,50.456400,72.849900,50.753300C72.718400,51.046100,72.544400,51.290000,72.328100,51.485200C72.115900,51.676100,71.876200,51.818200,71.609000,51.911500C71.341700,52.004800,71.072300,52.051500,70.800800,52.051500L69.178100,52.051500L69.178100,50.848800L70.800800,50.848800C70.864400,50.848800,70.953500,50.840300,71.068100,50.823300C71.186900,50.802100,71.303500,50.753300,71.418100,50.677000C71.536900,50.600600,71.638700,50.486100,71.723500,50.333300C71.812600,50.180600,71.857200,49.968500,71.857200,49.697000C71.857200,49.603600,71.848700,49.487000,71.831700,49.347000C71.819000,49.202700,71.799900,49.050000,71.774400,48.888800C71.753200,48.723300,71.727800,48.555800,71.698100,48.386100C71.668400,48.212100,71.638700,48.048800,71.609000,47.896100C71.579300,47.743300,71.551700,47.607600,71.526200,47.488800C71.500800,47.370000,71.479600,47.280900,71.462600,47.221500L72.601700,46.871500ZM70.368100,54.361500L71.449900,53.267000L72.557200,54.374200L71.462600,55.468800L70.368100,54.361500Z" fill="rgb(255,255,255)" stroke="none" stroke-width="1"/></g><clipPath id="ezbljmqbgx0f9"><rect id="ezbljmqbgx0f10" width="100" height="119" rx="0" ry="0" fill="rgb(255,255,255)" stroke="none" stroke-width="1"/></clipPath></g></g></svg>