<svg width="64" height="34" viewBox="0 0 64 34" fill="none" xmlns="http://www.w3.org/2000/svg">
<path d="M20.2116 2.83659C19.3255 1.09261 17.5745 0 15.6124 0C13.6503 0 11.8993 1.09261 11.0132 2.83659L0.359003 24.2476C-0.484892 25.9285 0.211321 28.0087 1.89911 28.8492C2.38435 29.1013 2.91178 29.2064 3.43922 29.2064C4.70506 29.2064 5.92871 28.513 6.51943 27.3153L15.6124 9.03506L24.7054 27.2523C25.1062 28.0717 25.8235 28.6811 26.6885 28.9752C27.5535 29.2694 28.5029 29.2064 29.3257 28.7861C30.1485 28.3869 30.7603 27.6725 31.0557 26.811C31.351 25.9495 31.2877 25.004 30.8658 24.2056L20.2116 2.83659Z" fill="white"/>
<path d="M15.619 16.254C14.2811 16.254 13.2063 17.2809 13.2063 18.5594V31.2184C13.2063 32.4968 14.2811 33.5238 15.619 33.5238C16.957 33.5238 18.0317 32.4968 18.0317 31.2184V18.5594C18.0317 17.2809 16.9351 16.254 15.619 16.254Z" fill="white"/>
<path d="M60.812 7.82775C59.0481 5.4784 55.2653 6.73698 55.2653 9.67367C55.2653 10.3449 55.4991 10.9742 55.9028 11.4986C57.1354 13.1767 57.858 15.2953 57.858 17.5818C57.858 23.0146 53.7352 27.4407 48.656 27.4407C43.5769 27.4407 39.4541 23.0146 39.4541 17.5818C39.4541 15.3373 40.1554 13.2606 41.3455 11.6035C41.728 11.0791 41.9405 10.4498 41.9405 9.79953C41.9405 6.86284 38.1152 5.60425 36.3938 7.97459C34.4387 10.6596 33.2698 13.9738 33.2698 17.5818C33.2698 26.3709 40.1554 33.5238 48.6348 33.5238C57.1142 33.5238 63.9997 26.3709 63.9997 17.5818C64.021 13.9109 62.8309 10.5337 60.812 7.82775Z" fill="white"/>
<path d="M48.6349 22.6032C49.9729 22.6032 51.0476 21.5736 51.0476 20.292V4.5969C51.0476 3.31524 49.9729 2.28571 48.6349 2.28571C47.297 2.28571 46.2222 3.31524 46.2222 4.5969V20.292C46.2222 21.5736 47.297 22.6032 48.6349 22.6032Z" fill="white"/>
</svg>
