<svg width="36" height="36" viewBox="0 0 36 36" fill="none" xmlns="http://www.w3.org/2000/svg">
<path fill-rule="evenodd" clip-rule="evenodd" d="M35.3521 20.2863L35.8479 20.351C35.9482 19.5815 36 18.7968 36 18C36 17.2032 35.9482 16.4185 35.8479 15.649L35.3521 15.7137L34.8563 15.7784C34.951 16.505 35 17.2466 35 18C35 18.7534 34.951 19.495 34.8563 20.2216L35.3521 20.2863ZM34.1723 11.3013L34.6342 11.1098C34.0273 9.64646 33.233 8.2805 32.2812 7.04189L31.8847 7.34655L31.4883 7.65121C32.3875 8.82133 33.1375 10.1114 33.7104 11.4929L34.1723 11.3013ZM28.6535 4.11527L28.9581 3.71881C27.7195 2.76699 26.3535 1.97268 24.8902 1.36585L24.6987 1.82771L24.5071 2.28958C25.8886 2.86247 27.1787 3.61254 28.3488 4.51173L28.6535 4.11527ZM20.2863 0.647941L20.351 0.152141C19.5815 0.051774 18.7968 0 18 0C17.2032 0 16.4185 0.0517739 15.649 0.152141L15.7137 0.647941L15.7784 1.14374C16.505 1.04895 17.2466 1 18 1C18.7534 1 19.495 1.04895 20.2216 1.14374L20.2863 0.647941ZM11.3013 1.82771L11.1098 1.36585C9.64646 1.97268 8.2805 2.76699 7.04189 3.71881L7.34655 4.11527L7.65121 4.51173C8.82133 3.61254 10.1114 2.86247 11.4929 2.28958L11.3013 1.82771ZM4.11527 7.34655L3.71881 7.04189C2.76699 8.2805 1.97268 9.64646 1.36585 11.1098L1.82771 11.3013L2.28958 11.4929C2.86247 10.1114 3.61254 8.82133 4.51173 7.65121L4.11527 7.34655ZM0 18C0 17.2032 0.051774 16.4185 0.152142 15.649L0.647941 15.7137L1.14374 15.7784C1.04895 16.505 1 17.2466 1 18C1 18.7534 1.04895 19.495 1.14374 20.2216L0.647941 20.2863L0.152141 20.351C0.0517739 19.5815 0 18.7968 0 18ZM1.82771 24.6987L1.36585 24.8902C1.97268 26.3535 2.76699 27.7195 3.71881 28.9581L4.11527 28.6535L4.51173 28.3488C3.61254 27.1787 2.86247 25.8886 2.28958 24.5071L1.82771 24.6987ZM7.34655 31.8847L7.04189 32.2812C8.2805 33.233 9.64646 34.0273 11.1098 34.6342L11.3013 34.1723L11.4929 33.7104C10.1114 33.1375 8.82133 32.3875 7.65121 31.4883L7.34655 31.8847ZM15.7137 35.3521L15.649 35.8479C16.4185 35.9482 17.2032 36 18 36C18.7968 36 19.5815 35.9482 20.351 35.8479L20.2863 35.3521L20.2216 34.8563C19.495 34.951 18.7534 35 18 35C17.2466 35 16.505 34.951 15.7784 34.8563L15.7137 35.3521ZM24.6987 34.1723L24.8902 34.6342C26.3535 34.0273 27.7195 33.233 28.9581 32.2812L28.6535 31.8847L28.3488 31.4883C27.1787 32.3875 25.8886 33.1375 24.5071 33.7104L24.6987 34.1723ZM31.8847 28.6535L32.2812 28.9581C33.233 27.7195 34.0273 26.3535 34.6342 24.8902L34.1723 24.6987L33.7104 24.5071C33.1375 25.8886 32.3875 27.1787 31.4883 28.3488L31.8847 28.6535ZM4 18C4 10.272 10.272 4 18 4C25.728 4 32 10.272 32 18C32 25.728 25.728 32 18 32C10.272 32 4 25.728 4 18ZM22.2 12.4C22.2 10.076 20.324 8.2 18 8.2C15.676 8.2 13.8 10.076 13.8 12.4C13.8 14.724 15.676 16.6 18 16.6C20.324 16.6 22.2 14.724 22.2 12.4ZM9.6 23.572C11.406 26.288 14.5 28.08 18 28.08C21.5 28.08 24.594 26.288 26.4 23.572C26.358 20.786 20.786 19.26 18 19.26C15.2 19.26 9.642 20.786 9.6 23.572Z" fill="#C76F2F"/>
</svg>
