<svg width="25" height="26" viewBox="0 0 25 26" fill="none" xmlns="http://www.w3.org/2000/svg">
<path fill-rule="evenodd" clip-rule="evenodd" d="M21.0538 3.45884L21.0666 3.47264L21.0797 3.48619C21.9507 4.38833 22.4938 5.70482 22.4938 7.41623V17.9524C22.4938 19.7337 21.9406 21.0757 21.0578 21.9568C20.1894 22.8216 18.9387 23.3686 17.2839 23.3686H7.20988C5.64157 23.3686 4.39658 22.865 3.48738 21.9588C2.54656 21.0192 2 19.6713 2 17.9012V7.41623C2 5.62523 2.56951 4.29703 3.40794 3.42865C4.24028 2.56658 5.48839 2 7.16049 2H17.3333C18.9401 2 20.2045 2.54534 21.0538 3.45884ZM17.3333 0C19.4074 0 21.2346 0.716049 22.5185 2.097C23.8025 3.42681 24.4938 5.26808 24.4938 7.41623V17.9524C24.4938 20.1517 23.8025 22.0441 22.4691 23.3739C21.1852 24.6526 19.4074 25.3686 17.2839 25.3686H7.20988C5.18518 25.3686 3.40741 24.7037 2.07407 23.3739C0.691357 21.9929 0 20.1005 0 17.9012V7.41623C0 2.96649 2.8642 0 7.16049 0H17.3333ZM18.8147 7.41625C19.6057 7.41625 20.2468 6.75218 20.2468 5.933C20.2468 5.11383 19.6057 4.44976 18.8147 4.44976C18.0238 4.44976 17.3826 5.11383 17.3826 5.933C17.3826 6.75218 18.0238 7.41625 18.8147 7.41625ZM12.3949 9.23983C10.7593 9.23983 9.22206 10.6591 9.22206 12.6331C9.22206 14.6227 10.7261 16.0264 12.3949 16.0264C14.0487 16.0264 15.5677 14.5882 15.5677 12.6331C15.5677 10.6936 14.0155 9.23983 12.3949 9.23983ZM6.22206 12.6331C6.22206 9.08685 9.01913 6.23983 12.3949 6.23983C15.7707 6.23983 18.5677 9.1368 18.5677 12.6331C18.5677 16.1295 15.8189 19.0264 12.3949 19.0264C8.9709 19.0264 6.22206 16.1794 6.22206 12.6331Z" fill="white" fill-opacity="0.5"/>
</svg>
