<svg width="28" height="34" viewBox="0 0 28 34" fill="none" xmlns="http://www.w3.org/2000/svg">
<path fill-rule="evenodd" clip-rule="evenodd" d="M21.5001 13C25.0899 13 28.0001 10.0899 28.0001 6.5C28.0001 2.91015 25.0899 0 21.5001 0C17.9102 0 15.0001 2.91015 15.0001 6.5C15.0001 7.34268 15.1604 8.14791 15.4523 8.88684L6.99174 14.0829C6.24916 13.3547 5.25207 12.909 4.15584 12.909C1.86063 12.909 0 14.8627 0 17.2727C0 19.6827 1.86063 21.6363 4.15584 21.6363C4.97233 21.6363 5.73383 21.3891 6.37613 20.962L17.5287 28.2533C17.3905 28.6879 17.3157 29.1529 17.3157 29.6363C17.3157 32.0463 19.1763 34 21.4715 34C23.7667 34 25.6273 32.0463 25.6273 29.6363C25.6273 27.2263 23.7667 25.2727 21.4715 25.2727C20.333 25.2727 19.3014 25.7534 18.5508 26.532L7.7476 19.4692C8.10621 18.824 8.31169 18.0735 8.31169 17.2727C8.31169 16.7461 8.22285 16.2413 8.06005 15.7739L16.4655 10.6116C17.6575 12.0694 19.4701 13 21.5001 13Z" fill="#D8AB81"/>
</svg>
