<svg width="154" height="90" viewBox="0 0 154 90" fill="none" xmlns="http://www.w3.org/2000/svg">
<path fill-rule="evenodd" clip-rule="evenodd" d="M9.90154 26.1364C10.8561 26.6515 11.9205 26.9091 13.0947 26.9091H15.7652C17.8788 26.9091 19.4659 26.4091 20.5265 25.4091C21.5872 24.4167 22.1175 22.9205 22.1175 20.9205V12.9318H19.9697V20.9205C19.9697 21.4962 19.9129 22.0189 19.7993 22.4886C19.6932 22.9659 19.4849 23.3712 19.1743 23.7045C18.8712 24.0379 18.4432 24.2955 17.8902 24.4773C17.3447 24.6667 16.6364 24.7614 15.7652 24.7614H13.0947C12.2917 24.7614 11.572 24.5909 10.9356 24.25C10.2993 23.9167 9.78412 23.4432 9.39018 22.8295C9.07957 22.3447 8.86367 21.7955 8.74245 21.1818C8.62124 20.5682 8.59094 19.9015 8.65154 19.1818C8.71215 18.4621 8.86367 17.7008 9.10609 16.8977C9.35609 16.0871 9.69321 15.2424 10.1175 14.3636L8.18564 13.4432C7.68564 14.4886 7.29548 15.5038 7.01518 16.4886C6.73488 17.4659 6.56821 18.4015 6.51518 19.2955C6.46215 20.1894 6.52276 21.0265 6.697 21.8068C6.87882 22.5947 7.17427 23.3106 7.58336 23.9545C8.17427 24.9015 8.947 25.6288 9.90154 26.1364ZM15.1175 10.0795L13.1856 12.0341L15.1402 14.0114L17.0947 12.0568L15.1175 10.0795ZM22.2419 24.7727V26.9205H23.8101C24.9086 26.9205 25.8745 26.7614 26.7078 26.4432C27.5487 26.1326 28.2495 25.6818 28.8101 25.0909C29.3707 24.5 29.7912 23.7765 30.0715 22.9205C30.3593 22.072 30.5033 21.1061 30.5033 20.0227V12.9318H28.3556V20.0227C28.3556 20.8485 28.2646 21.5606 28.0828 22.1591C27.9086 22.7576 27.6321 23.25 27.2533 23.6364C26.8821 24.0227 26.4086 24.3068 25.8328 24.4886C25.2646 24.678 24.5904 24.7727 23.8101 24.7727H22.2419ZM29.3669 6.05682L27.4351 8.01136L29.3896 9.98864L31.3442 8.03409L29.3669 6.05682ZM37.9389 24.4773C37.1586 24.6515 36.1965 24.7386 35.0526 24.7386V26.8864C36.4692 26.8864 37.67 26.7576 38.6548 26.5C39.6473 26.25 40.4768 25.8636 41.1435 25.3409C41.8026 24.8182 42.2874 24.1667 42.598 23.3864C42.9162 22.6136 43.0753 21.6894 43.0753 20.6136V18.4659V16.3182C43.0753 14.2803 42.5639 12.7841 41.5412 11.8295C41.17 11.4962 40.7495 11.2462 40.2798 11.0795C39.8101 10.9129 39.3063 10.8295 38.7685 10.8295C38.1548 10.8295 37.5791 10.9432 37.0412 11.1705C36.5033 11.3977 36.026 11.7197 35.6094 12.1364C35.4579 12.303 35.3026 12.5038 35.1435 12.7386C34.9844 12.9735 34.8366 13.25 34.7003 13.5682C34.5715 13.8864 34.4616 14.25 34.3707 14.6591C34.2874 15.0606 34.2457 15.5114 34.2457 16.0114C34.2457 16.8598 34.3859 17.5795 34.6662 18.1705C34.9465 18.7538 35.3063 19.2273 35.7457 19.5909C36.1927 19.9545 36.6889 20.2159 37.2344 20.375C37.7798 20.5341 38.3177 20.6136 38.848 20.6136H40.9389C40.9389 21.3485 40.8442 21.9621 40.6548 22.4545C40.473 22.947 40.1851 23.3523 39.7912 23.6705C39.3366 24.0341 38.7192 24.303 37.9389 24.4773ZM37.0185 13.7727C37.4351 13.2424 38.0185 12.9773 38.7685 12.9773C38.8594 12.9773 38.9768 12.9848 39.1207 13C39.2647 13.0076 39.4162 13.0417 39.5753 13.1023C39.7344 13.1629 39.8935 13.2614 40.0526 13.3977C40.2192 13.5265 40.367 13.7159 40.4957 13.9659C40.6245 14.2159 40.7306 14.5341 40.8139 14.9205C40.8973 15.2992 40.9389 15.7652 40.9389 16.3182V18.4659H38.848C38.7723 18.4659 38.6738 18.4621 38.5526 18.4545C38.4389 18.4394 38.3101 18.4205 38.1662 18.3977C38.0223 18.3674 37.8745 18.3258 37.723 18.2727C37.5715 18.2121 37.4238 18.1364 37.2798 18.0455C36.6889 17.6667 36.3935 16.9886 36.3935 16.0114C36.3935 15.0492 36.6018 14.303 37.0185 13.7727ZM54.29 7.88864C53.7067 9.77197 53.415 11.7303 53.415 13.7636C53.415 15.7803 53.7067 17.722 54.29 19.5886C54.89 21.4386 55.8234 23.097 57.09 24.5636H59.14C57.99 22.997 57.115 21.2886 56.515 19.4386C55.9317 17.572 55.64 15.672 55.64 13.7386C55.64 11.7553 55.9317 9.82197 56.515 7.93864C57.115 6.0553 57.9984 4.3303 59.165 2.76363H57.09C55.8234 4.2803 54.89 5.98864 54.29 7.88864ZM61.2738 28.1136H63.4102V17.6136C63.698 17.7727 64.0692 17.9735 64.5238 18.2159C64.9859 18.4508 65.4783 18.697 66.0011 18.9545C66.7814 19.3409 67.4367 19.6477 67.967 19.875C68.4973 20.1023 68.9367 20.2765 69.2852 20.3977C69.6336 20.5189 69.9102 20.5985 70.1147 20.6364C70.3192 20.6742 70.4859 20.6932 70.6147 20.6932C70.7889 20.6932 70.9973 20.6742 71.2397 20.6364C71.4821 20.5985 71.7321 20.5227 71.9897 20.4091C72.2473 20.2879 72.5011 20.1212 72.7511 19.9091C73.0086 19.6894 73.2359 19.3977 73.4329 19.0341C73.6374 18.6705 73.8003 18.2235 73.9215 17.6932C74.0503 17.1629 74.1147 16.5303 74.1147 15.7955C74.1147 15.1288 74.0276 14.5 73.8533 13.9091C73.6867 13.3182 73.4367 12.7955 73.1033 12.3409C72.7094 11.7955 72.2245 11.3826 71.6488 11.1023C71.0806 10.8144 70.4518 10.6705 69.7624 10.6705C68.1791 10.6705 67.02 11.4091 66.2852 12.8864C66.0655 13.3258 65.8799 13.822 65.7283 14.375C65.5844 14.9205 65.4556 15.5341 65.342 16.2159C65.1223 16.1098 64.895 15.9924 64.6602 15.8636C64.4329 15.7348 64.2208 15.6174 64.0238 15.5114C63.7889 15.3826 63.5617 15.2576 63.342 15.1364L61.2738 16.3409V28.1136ZM68.9442 17.9659C68.5276 17.7917 67.9973 17.5455 67.3533 17.2273C67.4973 16.2879 67.645 15.5303 67.7965 14.9545C67.9556 14.3712 68.1299 13.9205 68.3192 13.6023C68.5162 13.2841 68.7321 13.072 68.967 12.9659C69.2018 12.8598 69.467 12.8068 69.7624 12.8068C70.1109 12.8068 70.4064 12.8712 70.6488 13C70.8988 13.1212 71.1033 13.2803 71.2624 13.4773C71.4291 13.6667 71.5579 13.8788 71.6488 14.1136C71.7473 14.3485 71.8192 14.5758 71.8647 14.7955C71.9177 15.0152 71.948 15.2159 71.9556 15.3977C71.9708 15.5795 71.9783 15.7121 71.9783 15.7955C71.9783 16.4848 71.9215 17.0152 71.8079 17.3864C71.7018 17.7576 71.573 18.0303 71.4215 18.2045C71.2776 18.3712 71.1261 18.4697 70.967 18.5C70.8155 18.5303 70.698 18.5455 70.6147 18.5455C70.5995 18.5455 70.5427 18.5379 70.4442 18.5227C70.3458 18.5 70.1753 18.447 69.9329 18.3636C69.6905 18.2727 69.3609 18.1402 68.9442 17.9659ZM83.3691 20.6136H83.2572V20.6125C82.5729 20.5984 81.9398 20.4549 81.3578 20.1818C81.3578 21.2424 81.2101 22.1894 80.9146 23.0227C80.6191 23.8561 80.1873 24.5606 79.6191 25.1364C79.051 25.7197 78.3502 26.1629 77.5169 26.4659C76.6911 26.7689 75.7404 26.9205 74.6646 26.9205H73.0964V24.7727H74.6646C75.4449 24.7727 76.1191 24.678 76.6873 24.4886C77.2631 24.3068 77.7366 24.0227 78.1078 23.6364C78.4866 23.25 78.7631 22.7576 78.9373 22.1591C79.1191 21.5606 79.2101 20.8485 79.2101 20.0227V12.9318H81.3578V16.6932C81.3578 17.1174 81.4449 17.4508 81.6191 17.6932C81.801 17.928 82.0093 18.1023 82.2441 18.2159C82.479 18.3295 82.7025 18.4015 82.9146 18.4318C83.1343 18.4545 83.2858 18.4659 83.3691 18.4659H83.8578H89.9163C90.4617 18.4659 90.9125 18.4053 91.2686 18.2841C91.6322 18.1553 91.867 17.9811 91.9731 17.7614C92.0716 17.5417 92.0716 17.2727 91.9731 16.9545C91.8822 16.6288 91.7193 16.2727 91.4845 15.8864C91.2496 15.4924 90.9617 15.0795 90.6208 14.6477C90.2799 14.2159 89.9125 13.7841 89.5186 13.3523C89.1246 12.9205 88.7193 12.5 88.3026 12.0909C87.886 11.6742 87.4845 11.2917 87.0981 10.9432C86.7117 10.5871 86.3595 10.2765 86.0413 10.0114C85.7231 9.73864 85.4617 9.5303 85.2572 9.38636L85.4731 6.96591L95.8708 2.39773L96.7345 4.35227L87.6322 8.32955C87.8595 8.55682 88.1511 8.8447 88.5072 9.19318C88.8633 9.53409 89.2496 9.91667 89.6663 10.3409C90.0829 10.7576 90.5072 11.2045 90.939 11.6818C91.3708 12.1515 91.7799 12.625 92.1663 13.1023C92.5526 13.5795 92.8936 14.0492 93.189 14.5114C93.492 14.9659 93.7155 15.3864 93.8595 15.7727C93.9883 16.1061 94.0754 16.4167 94.1208 16.7045C94.1739 16.9924 94.1966 17.2576 94.189 17.5C94.1814 17.7348 94.1511 17.947 94.0981 18.1364C94.0526 18.3258 93.9996 18.4886 93.939 18.625C93.8557 18.8144 93.7269 19.0265 93.5526 19.2614C93.3784 19.4886 93.1322 19.7045 92.814 19.9091C92.5034 20.1061 92.1133 20.2727 91.6436 20.4091C91.1739 20.5455 90.5981 20.6136 89.9163 20.6136H83.8578H83.3691ZM94.4731 0L85.8481 3.71591L85.7231 5.02273L94.9504 1.02273L94.4731 0ZM102.013 24.4773C101.232 24.6515 100.27 24.7386 99.1264 24.7386V26.8864C100.543 26.8864 101.744 26.7576 102.729 26.5C103.721 26.25 104.551 25.8636 105.217 25.3409C105.876 24.8182 106.361 24.1667 106.672 23.3864C106.99 22.6136 107.149 21.6894 107.149 20.6136H108.548H108.73H108.854V20.613C110.752 20.5946 112.127 20.1478 112.98 19.2727C113.442 19.7424 113.931 20.0833 114.446 20.2955C114.934 20.4933 115.448 20.5989 115.988 20.6122V20.6136H116.105H116.287H119.738C121.283 20.6136 122.45 20.2197 123.238 19.4318C123.556 19.8258 123.977 20.1212 124.499 20.3182C125.03 20.5152 125.64 20.6136 126.329 20.6136H127.788H128.204H134.448C135.129 20.6136 135.705 20.5455 136.175 20.4091C136.645 20.2727 137.035 20.1061 137.345 19.9091C137.663 19.7045 137.91 19.4886 138.084 19.2614C138.258 19.0265 138.387 18.8144 138.47 18.625C138.531 18.4886 138.584 18.3258 138.629 18.1364C138.682 17.947 138.713 17.7348 138.72 17.5C138.728 17.2576 138.705 16.9924 138.652 16.7045C138.607 16.4167 138.52 16.1061 138.391 15.7727C138.247 15.3864 138.023 14.9659 137.72 14.5114C137.425 14.0492 137.084 13.5795 136.698 13.1023C136.311 12.625 135.902 12.1515 135.47 11.6818C135.038 11.2045 134.614 10.7576 134.198 10.3409C133.781 9.91667 133.395 9.53409 133.038 9.19318C132.682 8.8447 132.391 8.55682 132.163 8.32955L141.266 4.35227L140.402 2.39773L130.004 6.96591L129.788 9.38636C129.993 9.5303 130.254 9.73864 130.573 10.0114C130.891 10.2765 131.243 10.5871 131.629 10.9432C132.016 11.2917 132.417 11.6742 132.834 12.0909C133.251 12.5 133.656 12.9205 134.05 13.3523C134.444 13.7841 134.811 14.2159 135.152 14.6477C135.493 15.0795 135.781 15.4924 136.016 15.8864C136.251 16.2727 136.413 16.6288 136.504 16.9545C136.603 17.2727 136.603 17.5417 136.504 17.7614C136.398 17.9811 136.163 18.1553 135.8 18.2841C135.444 18.4053 134.993 18.4659 134.448 18.4659H128.204H127.788H126.329C126.268 18.4659 126.177 18.4621 126.056 18.4545C125.935 18.447 125.799 18.4242 125.647 18.3864C125.496 18.3485 125.337 18.2917 125.17 18.2159C125.011 18.1402 124.867 18.0379 124.738 17.9091C124.609 17.7727 124.499 17.6061 124.408 17.4091C124.325 17.2121 124.283 16.9735 124.283 16.6932V12.9318H122.147V16.7727C122.147 16.9545 122.121 17.1477 122.068 17.3523C122.022 17.5492 121.916 17.7311 121.749 17.8977C121.59 18.0568 121.352 18.1932 121.033 18.3068C120.715 18.4129 120.283 18.4659 119.738 18.4659H116.287H116.105C115.666 18.4659 115.314 18.3977 115.048 18.2614C114.783 18.125 114.575 17.947 114.423 17.7273C114.28 17.5076 114.181 17.2652 114.128 17C114.083 16.7273 114.06 16.4583 114.06 16.1932V4.39773H111.923V16.1932C111.923 16.4356 111.905 16.6894 111.867 16.9545C111.836 17.2197 111.723 17.4659 111.526 17.6932C111.329 17.9129 111.011 18.0985 110.571 18.25C110.139 18.3939 109.526 18.4659 108.73 18.4659H108.548H107.149V16.3182C107.149 14.2803 106.638 12.7841 105.615 11.8295C105.244 11.4962 104.823 11.2462 104.354 11.0795C103.884 10.9129 103.38 10.8295 102.842 10.8295C102.229 10.8295 101.653 10.9432 101.115 11.1705C100.577 11.3977 100.1 11.7197 99.6832 12.1364C99.5317 12.303 99.3764 12.5038 99.2173 12.7386C99.0582 12.9735 98.9105 13.25 98.7741 13.5682C98.6454 13.8864 98.5355 14.25 98.4446 14.6591C98.3613 15.0606 98.3196 15.5114 98.3196 16.0114C98.3196 16.8598 98.4598 17.5795 98.7401 18.1705C99.0204 18.7538 99.3802 19.2273 99.8196 19.5909C100.267 19.9545 100.763 20.2159 101.308 20.375C101.854 20.5341 102.392 20.6136 102.922 20.6136H105.013C105.013 21.3485 104.918 21.9621 104.729 22.4545C104.547 22.947 104.259 23.3523 103.865 23.6705C103.411 24.0341 102.793 24.303 102.013 24.4773ZM101.092 13.7727C101.509 13.2424 102.092 12.9773 102.842 12.9773C102.933 12.9773 103.051 12.9848 103.195 13C103.339 13.0076 103.49 13.0417 103.649 13.1023C103.808 13.1629 103.967 13.2614 104.126 13.3977C104.293 13.5265 104.441 13.7159 104.57 13.9659C104.698 14.2159 104.804 14.5341 104.888 14.9205C104.971 15.2992 105.013 15.7652 105.013 16.3182V18.4659H102.922C102.846 18.4659 102.748 18.4621 102.626 18.4545C102.513 18.4394 102.384 18.4205 102.24 18.3977C102.096 18.3674 101.948 18.3258 101.797 18.2727C101.645 18.2121 101.498 18.1364 101.354 18.0455C100.763 17.6667 100.467 16.9886 100.467 16.0114C100.467 15.0492 100.676 14.303 101.092 13.7727ZM123.34 26.8523L125.181 25.0114L123.363 23.1932L121.568 25.0114L123.34 26.8523ZM118.988 26.875L120.829 25.0341L119.011 23.2159L117.215 25.0341L118.988 26.875ZM146.76 19.5886C147.36 17.722 147.66 15.7803 147.66 13.7636C147.66 11.7303 147.36 9.77197 146.76 7.88864C146.177 5.98864 145.252 4.2803 143.985 2.76363H141.91C143.077 4.3303 143.952 6.0553 144.535 7.93864C145.135 9.82197 145.435 11.7553 145.435 13.7386C145.435 15.672 145.135 17.572 144.535 19.4386C143.952 21.2886 143.085 22.997 141.935 24.5636H143.985C145.252 23.097 146.177 21.4386 146.76 19.5886ZM0 45.6136H154V43.6136H0V45.6136ZM43.0809 83.6136H43.0361C41.9073 83.6136 40.8656 83.1439 39.9111 82.2045C39.3429 82.9697 38.3467 83.4545 36.9225 83.6591C36.6573 83.697 36.377 83.7273 36.0815 83.75C35.7861 83.7727 35.4793 83.7841 35.1611 83.7841C34.7747 83.7841 34.3846 83.7651 33.9906 83.7273C33.5967 83.697 33.2103 83.6477 32.8315 83.5795C32.4603 83.5038 32.1005 83.4091 31.752 83.2955C31.4035 83.1742 31.0891 83.0341 30.8088 82.875L29.877 82.3295L30.9452 80.4545L31.8884 81C32.1535 81.1515 32.4755 81.2765 32.8543 81.375C33.2406 81.4659 33.6497 81.5341 34.0815 81.5795C34.5134 81.6174 34.949 81.6326 35.3884 81.625C35.8278 81.6099 36.2368 81.5758 36.6156 81.5227C37.055 81.4545 37.4149 81.3599 37.6952 81.2386C37.9831 81.1099 38.1649 80.9659 38.2406 80.8068C38.3467 80.6856 38.3618 80.5038 38.2861 80.2614C38.2179 80.0189 38.0929 79.7576 37.9111 79.4773L33.6497 72.9886L35.4565 71.8068L39.8656 78.5341C40.0929 78.8599 40.3202 79.197 40.5475 79.5455C40.7823 79.8864 41.0285 80.2008 41.2861 80.4886C41.5437 80.7689 41.8126 81.0038 42.0929 81.1932C42.3808 81.375 42.6952 81.4659 43.0361 81.4659H43.0809H43.4565H47.4446C48.293 81.4659 48.9749 81.4053 49.49 81.2841C50.0127 81.1629 50.418 81.0114 50.7059 80.8295C50.9938 80.6477 51.187 80.4508 51.2855 80.2386C51.3915 80.0189 51.4559 79.8106 51.4786 79.6136H49.7514C49.5544 79.6136 49.3347 79.6061 49.0923 79.5909C48.8499 79.5758 48.5961 79.5492 48.3309 79.5114C48.0733 79.4659 47.812 79.4015 47.5468 79.3182C47.2817 79.2349 47.0241 79.125 46.7741 78.9886C46.5696 78.8674 46.3612 78.7159 46.1491 78.5341C45.937 78.3523 45.7438 78.1288 45.5696 77.8636C45.4029 77.5909 45.2627 77.2727 45.1491 76.9091C45.043 76.5379 44.99 76.1061 44.99 75.6136C44.99 75 45.0961 74.4205 45.3082 73.875C45.5203 73.322 45.8233 72.8485 46.2173 72.4545C46.6112 72.0606 47.062 71.7614 47.5696 71.5568C48.0771 71.3523 48.6188 71.25 49.1946 71.25C49.8536 71.25 50.4597 71.3901 51.0127 71.6705C51.5658 71.9508 52.0317 72.3523 52.4105 72.875C52.8196 73.4205 53.1226 74.0947 53.3196 74.8977C53.5165 75.7008 53.615 76.6212 53.615 77.6591V79.2273C53.615 79.9773 53.4635 80.6439 53.1605 81.2273C52.865 81.8106 52.4143 82.2841 51.8082 82.6477C50.8006 83.2917 49.3461 83.6136 47.4446 83.6136H43.4565H43.0809ZM49.1946 73.3977C48.9446 73.3977 48.687 73.4432 48.4218 73.5341C48.1643 73.6174 47.9294 73.75 47.7173 73.9318C47.5127 74.1061 47.3423 74.3333 47.2059 74.6136C47.0771 74.8939 47.0127 75.2273 47.0127 75.6136C47.0127 75.8636 47.0393 76.0758 47.0923 76.25C47.1453 76.4167 47.2135 76.5568 47.2968 76.6705C47.3802 76.7765 47.4673 76.8636 47.5582 76.9318C47.6491 77 47.7362 77.0568 47.8196 77.1023C48.0393 77.2311 48.3082 77.3258 48.6264 77.3864C48.9446 77.4394 49.3196 77.4659 49.7514 77.4659H51.5014C51.4862 76.7159 51.4067 76.0606 51.2627 75.5C51.1264 74.9394 50.937 74.4811 50.6946 74.125C50.3309 73.6401 49.8309 73.3977 49.1946 73.3977ZM51.0923 69.1818L49.2968 67.3636L51.0696 65.5227L52.9105 67.3636L51.0923 69.1818ZM46.74 69.1591L44.9446 67.3409L46.7173 65.5L48.5582 67.3409L46.74 69.1591ZM63.5776 76.7636C63.5776 74.7303 63.8693 72.772 64.4526 70.8886C65.0526 68.9886 65.986 67.2803 67.2526 65.7636H69.3276C68.161 67.3303 67.2776 69.0553 66.6776 70.9386C66.0943 72.822 65.8026 74.7553 65.8026 76.7386C65.8026 78.672 66.0943 80.572 66.6776 82.4386C67.2776 84.2886 68.1526 85.997 69.3026 87.5636H67.2526C65.986 86.097 65.0526 84.4386 64.4526 82.5886C63.8693 80.722 63.5776 78.7803 63.5776 76.7636ZM79.3244 83.6136H79.3228C78.5955 83.6136 77.925 83.4697 77.3114 83.1818C77.3114 84.2424 77.1637 85.1894 76.8682 86.0227C76.5728 86.8561 76.1409 87.5606 75.5728 88.1364C75.0046 88.7197 74.3038 89.1629 73.4705 89.4659C72.6447 89.7689 71.694 89.9205 70.6182 89.9205H69.05V87.7727H70.6182C71.3985 87.7727 72.0728 87.678 72.6409 87.4886C73.2167 87.3068 73.6902 87.0227 74.0614 86.6364C74.4402 86.25 74.7167 85.7576 74.8909 85.1591C75.0728 84.5606 75.1637 83.8485 75.1637 83.0227V75.9318H77.3114V79.6932C77.3114 80.1174 77.3985 80.4508 77.5728 80.6932C77.7546 80.928 77.9629 81.1023 78.1978 81.2159C78.4326 81.3295 78.6561 81.4015 78.8682 81.4318C79.0879 81.4545 79.2394 81.4659 79.3228 81.4659H79.3244H79.8114H83.0744C83.6199 81.4659 84.0517 81.4129 84.3699 81.3068C84.6881 81.1932 84.9267 81.0568 85.0858 80.8977C85.2525 80.7311 85.3585 80.5492 85.404 80.3523C85.457 80.1477 85.4835 79.9545 85.4835 79.7727V75.9318H87.6199V79.6932C87.6199 79.9735 87.6616 80.2121 87.7449 80.4091C87.8358 80.6061 87.9457 80.7727 88.0744 80.9091C88.2032 81.0379 88.3472 81.1401 88.5063 81.2159C88.6729 81.2917 88.832 81.3485 88.9835 81.3864C89.135 81.4242 89.2714 81.447 89.3926 81.4545C89.5138 81.4621 89.6047 81.4659 89.6654 81.4659H91.1703H91.5404H92.4771C92.765 81.4659 92.9999 81.3599 93.1817 81.1477C93.3711 80.9356 93.534 80.6591 93.6703 80.3182C93.8067 79.9773 93.9317 79.5871 94.0453 79.1477C94.159 78.7083 94.2877 78.2576 94.4317 77.7955C94.5832 77.3333 94.7612 76.8826 94.9658 76.4432C95.1703 76.0038 95.4279 75.6136 95.7385 75.2727C96.0567 74.9318 96.4393 74.6553 96.8862 74.4432C97.3408 74.2311 97.89 74.125 98.534 74.125C99.2764 74.125 99.9203 74.2689 100.466 74.5568C101.019 74.8371 101.477 75.2159 101.841 75.6932C102.204 76.1705 102.473 76.7197 102.648 77.3409C102.829 77.9621 102.92 78.6061 102.92 79.2727C102.92 80.0076 102.856 80.6401 102.727 81.1705C102.606 81.7008 102.443 82.1477 102.239 82.5114C102.034 82.8674 101.803 83.1553 101.545 83.375C101.295 83.5947 101.038 83.7614 100.773 83.875C100.515 83.9886 100.265 84.0644 100.023 84.1023C99.7802 84.1401 99.5718 84.1591 99.3976 84.1591C99.0264 84.1591 98.6703 84.1212 98.3294 84.0455C97.9885 83.9697 97.64 83.8599 97.284 83.7159C96.9279 83.5795 96.5529 83.4091 96.159 83.2045C95.7726 83 95.3446 82.7689 94.8749 82.5114C94.2537 83.2462 93.4544 83.6136 92.4771 83.6136H91.5404H91.1703H89.6654C88.976 83.6136 88.3661 83.5151 87.8358 83.3182C87.3131 83.1212 86.8926 82.8258 86.5744 82.4318C85.7866 83.2197 84.6199 83.6136 83.0744 83.6136H79.8114H79.3244ZM87.4949 72.8295L85.6994 71.0114L87.4722 69.1705L89.3131 71.0114L87.4949 72.8295ZM83.1426 72.8068L81.3472 70.9886L83.1199 69.1477L84.9608 70.9886L83.1426 72.8068ZM99.3976 82.0114C99.4506 82.0114 99.5226 82.0076 99.6135 82C99.712 81.9924 99.8143 81.9621 99.9203 81.9091C100.034 81.8561 100.144 81.7765 100.25 81.6705C100.364 81.5568 100.462 81.4015 100.545 81.2045C100.636 81 100.708 80.7424 100.761 80.4318C100.822 80.1136 100.852 79.7273 100.852 79.2727C100.852 79.1894 100.845 79.0568 100.829 78.875C100.814 78.6932 100.78 78.4924 100.727 78.2727C100.674 78.0455 100.595 77.8144 100.489 77.5795C100.39 77.3447 100.254 77.1288 100.079 76.9318C99.9052 76.7348 99.693 76.5758 99.443 76.4545C99.193 76.3258 98.89 76.2614 98.534 76.2614C98.2006 76.2614 97.9165 76.322 97.6817 76.4432C97.4544 76.5568 97.2612 76.7159 97.1021 76.9205C96.943 77.125 96.8105 77.3674 96.7044 77.6477C96.5984 77.9205 96.4999 78.2197 96.409 78.5455C96.318 78.8636 96.2271 79.2008 96.1362 79.5568C96.0453 79.9053 95.9393 80.2538 95.818 80.6023C96.212 80.7992 96.5756 80.9849 96.909 81.1591C97.2423 81.3333 97.5529 81.4849 97.8408 81.6136C98.1287 81.7349 98.3976 81.8333 98.6476 81.9091C98.9052 81.9773 99.1552 82.0114 99.3976 82.0114ZM110.923 76.7636C110.923 78.7803 110.623 80.722 110.023 82.5886C109.44 84.4386 108.515 86.097 107.248 87.5636H105.198C106.348 85.997 107.215 84.2886 107.798 82.4386C108.398 80.572 108.698 78.672 108.698 76.7386C108.698 74.7553 108.398 72.822 107.798 70.9386C107.215 69.0553 106.34 67.3303 105.173 65.7636H107.248C108.515 67.2803 109.44 68.9886 110.023 70.8886C110.623 72.772 110.923 74.7303 110.923 76.7636ZM115.237 70.6136H124.677V69.0136H117.457V68.9336L120.437 65.9936C121.171 65.2736 121.811 64.6003 122.357 63.9736C122.904 63.3336 123.331 62.687 123.637 62.0336C123.944 61.3803 124.097 60.6803 124.097 59.9336C124.097 58.747 123.711 57.8203 122.937 57.1536C122.164 56.4736 121.111 56.1336 119.777 56.1336C118.871 56.1336 118.051 56.3003 117.317 56.6336C116.597 56.9536 115.957 57.347 115.397 57.8136L116.337 58.9936C116.884 58.567 117.417 58.2336 117.937 57.9936C118.471 57.7536 119.084 57.6336 119.777 57.6336C120.524 57.6336 121.131 57.8403 121.597 58.2536C122.064 58.6536 122.297 59.247 122.297 60.0336C122.297 60.6736 122.171 61.267 121.917 61.8136C121.664 62.347 121.291 62.8936 120.797 63.4536C120.304 64.0136 119.697 64.6536 118.977 65.3736L115.237 69.1536V70.6136Z" fill="#CBCBCB"/>
</svg>
