<svg width="268" height="478" viewBox="0 0 268 478" fill="none" xmlns="http://www.w3.org/2000/svg">
<g filter="url(#filter0_d)">
<path d="M32 48.9961C32 32.982 44.945 20 60.9134 20H207.087C223.055 20 236 32.982 236 48.9961V405.004C236 421.018 223.055 434 207.087 434H60.9134C44.945 434 32 421.018 32 405.004V48.9961Z" fill="#282828"/>
</g>
<path fill-rule="evenodd" clip-rule="evenodd" d="M31.5 126C32.3284 126 33 126.721 33 127.611V153.389C33 154.279 32.3284 155 31.5 155C30.6716 155 30 154.279 30 153.389V127.611C30 126.721 30.6716 126 31.5 126Z" fill="#FDFDFD"/>
<path fill-rule="evenodd" clip-rule="evenodd" d="M31.5 91C32.3284 91 33 91.7213 33 92.6111V118.389C33 119.279 32.3284 120 31.5 120C30.6716 120 30 119.279 30 118.389V92.6111C30 91.7213 30.6716 91 31.5 91Z" fill="#FDFDFD"/>
<path fill-rule="evenodd" clip-rule="evenodd" d="M236.5 91C237.328 91 238 91.7213 238 92.6111V118.389C238 119.279 237.328 120 236.5 120C235.672 120 235 119.279 235 118.389V92.6111C235 91.7213 235.672 91 236.5 91Z" fill="#FDFDFD"/>
<path fill-rule="evenodd" clip-rule="evenodd" d="M31.5 61C32.3284 61 33 61.6919 33 62.5455V76.4545C33 77.3081 32.3284 78 31.5 78C30.6716 78 30 77.3081 30 76.4545V62.5455C30 61.6919 30.6716 61 31.5 61Z" fill="#FDFDFD"/>
<path d="M32 38.9961C32 22.982 44.945 10 60.9134 10H207.087C223.055 10 236 22.982 236 38.9961V395.004C236 411.018 223.055 424 207.087 424H60.9134C44.945 424 32 411.018 32 395.004V38.9961Z" fill="black"/>
<path d="M44 58H224V378H44V58Z" fill="#CF2C2C"/>
<path d="M165.111 178H102.889C97.9556 178 94 182 94 186.889V249.111C94 254 97.9556 258 102.889 258H165.111C170 258 174 254 174 249.111V186.889C174 182 170 178 165.111 178ZM156.222 222.444H138.444V240.222H129.556V222.444H111.778V213.556H129.556V195.778H138.444V213.556H156.222V222.444Z" fill="white"/>
<path fill-rule="evenodd" clip-rule="evenodd" d="M115 37C115 35.8954 115.832 35 116.859 35H151.141C152.168 35 153 35.8954 153 37C153 38.1046 152.168 39 151.141 39H116.859C115.832 39 115 38.1046 115 37Z" fill="#444444"/>
<path d="M156 424C156 425.105 155.124 426 154.043 426H112.957C111.876 426 111 425.105 111 424H156Z" fill="#6B6B6B"/>
<path d="M136 26.5C136 27.8807 135.105 29 134 29C132.895 29 132 27.8807 132 26.5C132 25.1193 132.895 24 134 24C135.105 24 136 25.1193 136 26.5Z" fill="#444444"/>
<path fill-rule="evenodd" clip-rule="evenodd" d="M133.5 410.6C140.135 410.6 145.514 405.407 145.514 399C145.514 392.593 140.135 387.4 133.5 387.4C126.865 387.4 121.486 392.593 121.486 399C121.486 405.407 126.865 410.6 133.5 410.6ZM133.5 413C141.508 413 148 406.732 148 399C148 391.268 141.508 385 133.5 385C125.492 385 119 391.268 119 399C119 406.732 125.492 413 133.5 413Z" fill="#444444"/>
<path d="M102 37.5C102 39.433 100.433 41 98.5 41C96.567 41 95 39.433 95 37.5C95 35.567 96.567 34 98.5 34C100.433 34 102 35.567 102 37.5Z" fill="#444444"/>
<defs>
<filter id="filter0_d" x="0" y="0" width="268" height="478" filterUnits="userSpaceOnUse" color-interpolation-filters="sRGB">
<feFlood flood-opacity="0" result="BackgroundImageFix"/>
<feColorMatrix in="SourceAlpha" type="matrix" values="0 0 0 0 0 0 0 0 0 0 0 0 0 0 0 0 0 0 127 0"/>
<feOffset dy="12"/>
<feGaussianBlur stdDeviation="16"/>
<feColorMatrix type="matrix" values="0 0 0 0 0 0 0 0 0 0 0 0 0 0 0 0 0 0 0.16 0"/>
<feBlend mode="normal" in2="BackgroundImageFix" result="effect1_dropShadow"/>
<feBlend mode="normal" in="SourceGraphic" in2="effect1_dropShadow" result="shape"/>
</filter>
</defs>
</svg>
