<svg id="elo8e2bh247l1" xmlns="http://www.w3.org/2000/svg" xmlns:xlink="http://www.w3.org/1999/xlink" viewBox="0 0 700 110" shape-rendering="geometricPrecision" text-rendering="geometricPrecision" width="700" height="110"><style><![CDATA[#elo8e2bh247l2_to {animation: elo8e2bh247l2_to__to 1500ms linear 1 normal forwards}@keyframes elo8e2bh247l2_to__to { 0% {transform: translate(50.625759px,55.128495px);animation-timing-function: cubic-bezier(0.420000,0,0.580000,1)} 100% {transform: translate(244.047212px,54.871506px)} }#elo8e2bh247l3_to {animation: elo8e2bh247l3_to__to 1500ms linear 1 normal forwards}@keyframes elo8e2bh247l3_to__to { 0% {transform: translate(689.312027px,54.871500px);animation-timing-function: cubic-bezier(0.420000,0,0.580000,1)} 100% {transform: translate(535.921126px,54.871500px)} }]]></style><g id="elo8e2bh247l2_to" transform="translate(50.625759,55.128495)"><path id="elo8e2bh247l2" d="M82.496500,0.256989L101.023000,0.256989L101.023000,110L80.926500,110L18.754500,29.930000L18.754500,110L0.228516,110L0.228516,0.256989L18.754500,0.256989L82.496500,82.211000L82.496500,0.256989Z" transform="translate(-50.625759,-55.128495)" fill="rgb(167,44,44)" stroke="none" stroke-width="1"/></g><g id="elo8e2bh247l3_to" transform="translate(689.312027,54.871500)"><g id="elo8e2bh247l3" transform="translate(-584.130997,-54.871498)"><path id="elo8e2bh247l4" d="M138.526000,17.270000L138.526000,47.414000L187.196000,47.414000L187.196000,64.527000L138.526000,64.527000L138.526000,109.743000L120,109.743000L120,0L193.162000,0L193.005000,17.270000L138.526000,17.270000Z" transform="matrix(1 0 0 1 243.08094700000004 0.12850000000001)" fill="rgb(255,255,255)" stroke="none" stroke-width="1"/><path id="elo8e2bh247l5" d="M214.752000,0L233.278000,0L233.278000,109.743000L214.752000,109.743000L214.752000,0Z" transform="matrix(1 0 0 1 243.08094699999975 0.12850000000001)" fill="rgb(255,255,255)" stroke="none" stroke-width="1"/><path id="elo8e2bh247l6" d="M328.659000,109.743000L301.655000,68.452000L300.870000,68.452000L273.866000,109.743000L250.787000,109.743000L288.467000,53.380000L253.456000,0L276.378000,0L300.870000,37.052000L301.655000,37.052000L326.147000,0L349.069000,0L314.058000,53.380000L351.738000,109.743000L328.659000,109.743000Z" transform="matrix(1 0 0 1 243.08094699999947 0.12850000000001)" fill="rgb(255,255,255)" stroke="none" stroke-width="1"/></g></g></svg>