<svg width="167" height="57" viewBox="0 0 167 57" fill="none" xmlns="http://www.w3.org/2000/svg">
<rect width="167" height="57" fill="#121212"/>
<path d="M100 4H108V53H100V4Z" fill="white"/>
<path d="M152.712 53L140.675 34.5637H140.325L128.288 53H118L134.796 27.834L119.19 4H129.407L140.325 20.5436H140.675L151.593 4H161.81L146.204 27.834L163 53H152.712Z" fill="white"/>
<path d="M66.8498 11.711V25.1702H87.4721V32.8112H66.8498V53H59V4H90L89.9335 11.711H66.8498Z" fill="white"/>
<path d="M40.729 4H49V53H40.028L12.271 17.2489V53H4V4H12.271L40.729 40.5922V4Z" fill="#A72C2C"/>
</svg>
