<svg width="18" height="22" viewBox="0 0 18 22" fill="none" xmlns="http://www.w3.org/2000/svg">
<path fill-rule="evenodd" clip-rule="evenodd" d="M14.7619 6C16.3398 6 17.619 4.65686 17.619 3C17.619 1.34314 16.3398 0 14.7619 0C13.1839 0 11.9047 1.34314 11.9047 3C11.9047 3.18842 11.9213 3.3728 11.9529 3.55164L4.56084 8.09149C4.08515 7.71991 3.4956 7.5 2.85714 7.5C1.27919 7.5 0 8.84314 0 10.5C0 12.1569 1.27919 13.5 2.85714 13.5C3.29502 13.5 3.70989 13.3966 4.0808 13.2117L11.9682 18.3683C11.9266 18.572 11.9047 18.7833 11.9047 19C11.9047 20.6569 13.1839 22 14.7619 22C16.3398 22 17.619 20.6569 17.619 19C17.619 17.3431 16.3398 16 14.7619 16C14.0924 16 13.4767 16.2418 12.9897 16.6467L5.46507 11.7272C5.62521 11.3526 5.71429 10.9372 5.71429 10.5C5.71429 10.2521 5.68565 10.0112 5.63167 9.78082L12.9275 5.30011C13.4238 5.73694 14.0636 6 14.7619 6Z" fill="white" fill-opacity="0.5"/>
</svg>
