<svg width="25" height="26" viewBox="0 0 25 26" fill="none" xmlns="http://www.w3.org/2000/svg">
<path fill-rule="evenodd" clip-rule="evenodd" d="M21.3038 3.91391L21.3166 3.92771L21.3297 3.94127C22.2007 4.84341 22.7438 6.15989 22.7438 7.8713V18.4075C22.7438 20.1888 22.1906 21.5308 21.3078 22.4118C20.4394 23.2767 19.1887 23.8237 17.5339 23.8237H7.45988C5.89157 23.8237 4.64658 23.3201 3.73738 22.4139C2.79656 21.4742 2.25 20.1264 2.25 18.3563V7.8713C2.25 6.08031 2.81951 4.7521 3.65794 3.88373C4.49028 3.02166 5.73839 2.45508 7.41049 2.45508H17.5833C19.1901 2.45508 20.4545 3.00041 21.3038 3.91391ZM17.5833 0.455078C19.6574 0.455078 21.4846 1.17113 22.7685 2.55208C24.0525 3.88189 24.7438 5.72316 24.7438 7.8713V18.4075C24.7438 20.6068 24.0525 22.4992 22.7191 23.829C21.4352 25.1076 19.6574 25.8237 17.5339 25.8237H7.45988C5.43518 25.8237 3.65741 25.1588 2.32407 23.829C0.941357 22.448 0.25 20.5556 0.25 18.3563V7.8713C0.25 3.42157 3.1142 0.455078 7.41049 0.455078H17.5833ZM19.0647 7.87133C19.8557 7.87133 20.4968 7.20726 20.4968 6.38808C20.4968 5.56891 19.8557 4.90484 19.0647 4.90484C18.2738 4.90484 17.6326 5.56891 17.6326 6.38808C17.6326 7.20726 18.2738 7.87133 19.0647 7.87133ZM12.6449 9.69491C11.0093 9.69491 9.47206 11.1142 9.47206 13.0882C9.47206 15.0777 10.9761 16.4815 12.6449 16.4815C14.2987 16.4815 15.8177 15.0433 15.8177 13.0882C15.8177 11.1486 14.2655 9.69491 12.6449 9.69491ZM6.47206 13.0882C6.47206 9.54193 9.26913 6.69491 12.6449 6.69491C16.0207 6.69491 18.8177 9.59188 18.8177 13.0882C18.8177 16.5845 16.0689 19.4815 12.6449 19.4815C9.2209 19.4815 6.47206 16.6345 6.47206 13.0882Z" fill="white" fill-opacity="0.5"/>
</svg>
