<svg width="64" height="64" viewBox="0 0 64 64" fill="none" xmlns="http://www.w3.org/2000/svg">
<path d="M35.5422 0C35.9977 0.199827 36.268 0.645736 36.6272 0.969529C41.16 5.47488 45.6503 10.0228 50.2053 14.5059C48.711 14.5263 47.2168 14.5318 45.7243 14.5004C42.5599 11.2199 39.2732 8.05597 36.0792 4.80324C35.9273 4.66077 35.7847 4.44799 35.544 4.48685C33.9701 6.09101 32.3629 7.66557 30.7816 9.26233C30.7853 9.34374 30.7909 9.50841 30.7946 9.58982C33.5517 12.3078 36.2495 15.0906 39.0362 17.779C36.7809 20.2176 34.3108 22.4601 32.037 24.8858C31.9667 24.8858 31.8278 24.8877 31.7574 24.8895C28.3541 21.4295 24.8953 18.0214 21.4679 14.5836C21.3883 14.4837 21.3401 14.369 21.329 14.2358C23.0399 12.713 24.5897 11.0127 26.2321 9.41405C25.623 8.81272 25.0175 8.20584 24.4175 7.59526C22.7974 9.23643 21.1087 10.8165 19.5496 12.5169C19.57 14.11 19.57 15.703 19.5496 17.2961C23.5084 21.3444 27.5635 25.3021 31.5445 29.3282C31.6963 29.4596 31.8167 29.6483 32.013 29.7149C32.3463 29.5299 32.5722 29.195 32.8518 28.9415C36.8957 24.9025 40.9342 20.856 44.9855 16.8224C45.1189 16.6818 45.2374 16.5264 45.3373 16.358C47.8389 16.3432 50.3386 16.3562 52.8402 16.3506C55.4343 19.0964 58.1803 21.6978 60.8226 24.3973C59.5116 25.6962 58.2173 27.0117 56.9008 28.3051C56.836 28.5493 57.0693 28.6862 57.2082 28.8435C59.2839 30.8973 61.3447 32.9695 63.4112 35.0363C63.5945 35.2157 63.7945 35.3767 64 35.5321C63.9056 35.7319 63.7778 35.9077 63.6167 36.0594C58.895 40.7332 54.2326 45.4698 49.498 50.1287C49.4943 48.6485 49.4572 47.1683 49.5202 45.69C52.7439 42.5908 55.8509 39.3677 59.0413 36.2334C59.2543 36.0261 59.4802 35.8171 59.5709 35.5229C58.8469 34.953 58.2488 34.2462 57.5841 33.6116C56.5953 32.5958 55.5473 31.6373 54.5992 30.5809C51.8773 33.4062 49.0277 36.1075 46.3113 38.9347C46.2428 38.9366 46.1058 38.9403 46.0373 38.9421C43.7875 36.609 41.4545 34.3535 39.1769 32.0481C39.0529 31.8964 39.0751 31.7613 39.2455 31.6429C42.6654 28.2051 46.1224 24.8025 49.5239 21.3463C49.5924 21.3518 49.7294 21.3592 49.7979 21.3629C51.3329 23.043 53.0031 24.5972 54.5992 26.2198C55.2084 25.6185 55.8158 25.0116 56.4194 24.4029C54.9566 22.919 53.4716 21.4591 52.0069 19.979C51.7959 19.8032 51.5977 19.5127 51.2848 19.5589C49.8553 19.5552 48.4259 19.5608 46.9964 19.5571C46.5372 19.5145 46.2872 19.9753 45.9817 20.2361C42.0896 24.118 38.2252 28.0294 34.3034 31.8797C34.3108 31.9537 34.3257 32.0999 34.3331 32.1721C38.7344 36.448 43.0154 40.846 47.3853 45.1552C47.6075 45.3218 47.5167 45.6289 47.5463 45.8657C47.5371 48.2118 47.5408 50.5598 47.5445 52.9059C44.8818 55.5296 42.2507 58.1828 39.6084 60.825C38.3196 59.4872 36.9254 58.2457 35.707 56.8451C35.3515 56.9154 35.1404 57.2355 34.8923 57.4668C33.2054 59.1672 31.5038 60.8509 29.8132 62.5494C29.3522 63.0194 28.8393 63.4486 28.4708 64C28.3893 63.9537 28.2264 63.8612 28.1467 63.815C23.7676 59.4262 19.3755 55.0504 14.9946 50.6653C14.6076 50.2841 14.2095 49.9104 13.8614 49.4922C15.3186 49.4719 16.7777 49.4885 18.2368 49.4848C21.5605 52.819 24.8916 56.1476 28.2282 59.4687C28.2912 59.4761 28.4171 59.4872 28.4819 59.4928C30.0836 57.9127 31.6426 56.2826 33.2776 54.7358C33.261 54.647 33.2295 54.4712 33.2147 54.3824C30.6057 51.9049 28.119 49.2961 25.5433 46.7816C25.3285 46.5762 25.1267 46.3579 24.9897 46.0933C26.4451 44.763 27.7912 43.3143 29.204 41.9377C30.1261 40.994 31.0983 40.0967 31.9815 39.1142C32.0481 39.1142 32.1833 39.1123 32.25 39.1123C34.0424 40.9829 35.9107 42.7814 37.7308 44.6242C39.4066 46.2728 41.0341 47.9713 42.7376 49.5903C41.1323 51.2944 39.4306 52.9096 37.7864 54.5767C38.3826 55.1965 38.9955 55.7979 39.6065 56.4029C41.2008 54.8283 42.7747 53.2316 44.3671 51.657C44.3763 49.9622 44.3671 48.2674 44.3726 46.5725C40.2546 42.4557 36.1347 38.3371 32.013 34.2221C27.6616 38.5129 23.3658 42.8609 19.0311 47.1683C18.8034 47.4236 18.4331 47.3663 18.1275 47.3792C15.8389 47.3663 13.5503 47.3811 11.2617 47.3718C10.9506 47.4218 10.7339 47.1757 10.5377 46.9833C8.09166 44.5077 5.6012 42.0746 3.1663 39.5897C4.50318 38.3056 5.75674 36.9365 7.13066 35.6931C7.09547 35.5358 7.00104 35.4063 6.88809 35.2971C4.73649 33.1786 2.62192 31.0249 0.470316 28.9064C0.279597 28.7288 0.12406 28.5178 0 28.2884C4.86981 23.5185 9.63407 18.6375 14.4983 13.8602C14.5205 15.1609 14.4983 16.4598 14.5131 17.7605C14.5039 17.9807 14.552 18.2434 14.3428 18.3951C11.1339 21.6109 7.91945 24.821 4.70316 28.0275C4.58836 28.1589 4.49207 28.3032 4.41616 28.4623C6.10855 30.0887 7.73799 31.7835 9.41743 33.4265C12.1134 30.5383 15.0205 27.848 17.7498 24.9894C17.9572 25.1467 18.159 25.3114 18.3386 25.5001C20.531 27.737 22.7863 29.9111 24.9638 32.161C21.4605 35.6635 17.9257 39.1382 14.465 42.6815C14.1317 42.6371 13.9336 42.3484 13.7077 42.1338C12.2967 40.6647 10.7913 39.2863 9.41928 37.782C8.81194 38.3352 8.26015 38.9421 7.65652 39.499C7.66763 39.5675 7.688 39.7007 7.69726 39.7673C9.31559 41.2753 10.8395 42.8831 12.4134 44.4373C14.041 44.4596 15.6686 44.4207 17.2961 44.4577C21.4846 40.328 25.6322 36.1538 29.7873 31.9889C25.3545 27.5576 20.9328 23.1151 16.4796 18.7041C16.4925 16.1693 16.4425 13.6289 16.5036 11.0959C19.1237 8.44082 21.779 5.81717 24.4157 3.17687C25.6841 4.5257 27.0358 5.79312 28.3171 7.129C28.3763 7.1216 28.493 7.10864 28.5504 7.10309C30.6946 4.96606 32.8258 2.81792 34.9774 0.688291C35.1885 0.479214 35.37 0.242382 35.5422 0ZM28.2708 11.7232C27.4876 12.6094 26.6025 13.3976 25.7841 14.2506C25.7137 14.4911 25.9414 14.6336 26.0785 14.7853C27.9801 16.6578 29.854 18.558 31.7482 20.4378C31.8148 20.4471 31.9463 20.4637 32.013 20.473C32.8925 19.6293 33.7257 18.7356 34.6108 17.8974C34.2831 17.3775 33.7942 16.9945 33.3739 16.556C31.776 14.9389 30.1428 13.3569 28.5615 11.7213C28.4893 11.7213 28.343 11.7232 28.2708 11.7232ZM49.5146 25.7943C47.526 27.8018 45.4947 29.7742 43.5283 31.8039C43.632 32.3201 44.2097 32.5939 44.5245 32.9936C45.1189 33.5061 45.5651 34.211 46.2632 34.5885C48.2703 32.5144 50.3312 30.492 52.3791 28.4586C51.5607 27.5243 50.6182 26.7064 49.785 25.7869C49.7165 25.7887 49.5831 25.7924 49.5146 25.7943ZM17.6924 29.4448C15.8222 31.4227 13.8484 33.3007 11.9394 35.2416C11.8264 35.373 11.7209 35.5099 11.6227 35.6524C12.5189 36.4979 13.354 37.4083 14.2539 38.2501C14.315 38.2335 14.4409 38.202 14.502 38.1872C16.4 36.3185 18.2646 34.4146 20.1643 32.5477C20.3032 32.396 20.5161 32.2516 20.4606 32.0148C19.6885 31.2525 18.9015 30.5031 18.159 29.7131C18.0424 29.5595 17.8776 29.4781 17.6924 29.4448ZM29.404 46.1007C29.5244 46.2765 29.6447 46.456 29.7966 46.6114C31.6871 48.4875 33.5646 50.3766 35.4515 52.2546C35.5181 52.2602 35.6533 52.2694 35.7199 52.2731C36.5439 51.4165 37.4049 50.5913 38.2382 49.742C38.2326 49.6865 38.2234 49.5718 38.2178 49.5163C36.3476 47.6142 34.4368 45.7529 32.5685 43.849C32.4074 43.7121 32.2722 43.4697 32.0259 43.5159C31.1316 44.3541 30.3058 45.2663 29.404 46.1007Z" fill="white"/>
</svg>
