<svg width="64" height="64" viewBox="0 0 64 64" fill="none" xmlns="http://www.w3.org/2000/svg">
<path fill-rule="evenodd" clip-rule="evenodd" d="M8.40097 7H22.9924C24.2271 7 24.8564 8.48621 23.9897 9.35907L9.43389 23.9735C8.55532 24.8581 7.04749 24.2448 7.04749 23.0063L7 8.39185C7 7.62515 7.61738 7 8.40097 7ZM55.6212 57H41.0085C39.773 57 39.1434 55.5138 40.0106 54.6409L54.5639 40.0265C55.4431 39.1419 56.9517 39.7552 56.9517 40.9937L56.9994 55.6082C57.0231 56.3749 56.3935 57 55.6212 57ZM9.08081 44.8832L44.8924 9.08038C47.6668 6.30654 52.157 6.30654 54.9192 9.08038C57.6936 11.8541 57.6936 16.343 54.9192 19.1047L19.1076 54.9197C16.3453 57.6934 11.843 57.6934 9.08081 54.9197C6.30641 52.1459 6.30641 47.657 9.08081 44.8832Z" fill="white"/>
</svg>
