<svg width="24" height="24" viewBox="0 0 24 24" fill="none" xmlns="http://www.w3.org/2000/svg">
<path d="M14 11C15.66 11 16.99 9.66 16.99 8C16.99 6.34 15.66 5 14 5C13.68 5 13.37 5.05 13.09 5.14C13.66 5.95 13.99 6.93 13.99 8C13.99 9.07 13.65 10.04 13.09 10.86C13.37 10.95 13.68 11 14 11ZM9 11C10.66 11 11.99 9.66 11.99 8C11.99 6.34 10.66 5 9 5C7.34 5 6 6.34 6 8C6 9.66 7.34 11 9 11ZM15.62 13.16C16.45 13.89 17 14.82 17 16V18H20V16C20 14.46 17.63 13.51 15.62 13.16ZM9 13C7 13 3 14 3 16V18H15V16C15 14 11 13 9 13Z" fill="white"/>
</svg>
