<svg width="1440" height="1024" viewBox="0 0 1440 1024" fill="none" xmlns="http://www.w3.org/2000/svg">
<mask id="mask0" mask-type="alpha" maskUnits="userSpaceOnUse" x="0" y="0" width="1440" height="1024">
<rect width="1440" height="1024" fill="#C4C4C4"/>
</mask>
<g mask="url(#mask0)">
<path d="M-281.5 1306.5L1308 -283" stroke="white" stroke-opacity="0.05" stroke-width="18"/>
<path d="M-165 1306.5L1424.5 -283" stroke="white" stroke-opacity="0.05" stroke-width="18"/>
<path d="M-48.5 1306.5L1541 -283" stroke="white" stroke-opacity="0.05" stroke-width="18"/>
<path d="M68 1306.5L1657.5 -283" stroke="white" stroke-opacity="0.05" stroke-width="18"/>
<path d="M184.5 1306.5L1774 -283" stroke="white" stroke-opacity="0.05" stroke-width="18"/>
<path d="M301 1306.5L1890.5 -283" stroke="white" stroke-opacity="0.05" stroke-width="18"/>
<path d="M417.5 1306.5L2007 -283" stroke="white" stroke-opacity="0.05" stroke-width="18"/>
<path d="M534 1306.5L2123.5 -283" stroke="white" stroke-opacity="0.05" stroke-width="18"/>
<path d="M650.5 1306.5L2240 -283" stroke="white" stroke-opacity="0.05" stroke-width="18"/>
<path d="M767 1306.5L2356.5 -283" stroke="white" stroke-opacity="0.05" stroke-width="18"/>
<path d="M883.5 1306.5L2473 -283" stroke="white" stroke-opacity="0.05" stroke-width="18"/>
<path d="M1000 1306.5L2589.5 -283" stroke="white" stroke-opacity="0.05" stroke-width="18"/>
<path d="M1116.5 1306.5L2706 -283" stroke="white" stroke-opacity="0.05" stroke-width="18"/>
<path d="M-398 1306.5L1191.5 -283" stroke="white" stroke-opacity="0.05" stroke-width="18"/>
<path d="M-514.5 1306.5L1075 -283" stroke="white" stroke-opacity="0.05" stroke-width="18"/>
<path d="M-631 1306.5L958.5 -283" stroke="white" stroke-opacity="0.05" stroke-width="18"/>
<path d="M-747.5 1306.5L842 -283" stroke="white" stroke-opacity="0.05" stroke-width="18"/>
<path d="M-864 1306.5L725.5 -283" stroke="white" stroke-opacity="0.05" stroke-width="18"/>
<path d="M-980.5 1306.5L609 -283" stroke="white" stroke-opacity="0.05" stroke-width="18"/>
<path d="M-1097 1306.5L492.5 -283" stroke="white" stroke-opacity="0.05" stroke-width="18"/>
<path d="M-1213.5 1306.5L376 -283" stroke="white" stroke-opacity="0.05" stroke-width="18"/>
<path d="M-1330 1306.5L259.5 -283" stroke="white" stroke-opacity="0.05" stroke-width="18"/>
</g>
</svg>
